<svg width="740" height="817" viewBox="0 0 740 817" fill="none" xmlns="http://www.w3.org/2000/svg">
<path d="M692.701 245.319C706.85 269.826 682.338 310.468 503.112 413.944C323.887 517.42 167.125 581.437 152.976 556.929C138.826 532.422 272.647 428.671 451.873 325.195C631.098 221.719 678.552 220.811 692.701 245.319Z" fill="white"/>
<path d="M90.5279 476.228L113.207 463.134L214.479 499.802L186.626 537.3L90.5279 476.228Z" fill="white"/>
<path d="M193.118 260.307L248.579 228.287L496.241 317.958L428.126 409.659L193.118 260.307Z" fill="white"/>
<path d="M434.842 678.985L490.303 646.964L536.475 387.648L423.003 400.786L434.842 678.985Z" fill="white"/>
<path d="M191.576 651.248L214.255 638.154L233.135 532.116L186.735 537.489L191.576 651.248Z" fill="white"/>
<ellipse cx="506.209" cy="351.773" rx="8.00957" ry="10.8796" transform="rotate(-30 506.209 351.773)" fill="#16141F"/>
<ellipse cx="534.968" cy="335.981" rx="8.00957" ry="10.8796" transform="rotate(-30 534.968 335.981)" fill="#16141F"/>
<ellipse cx="563.374" cy="319.58" rx="8.00957" ry="10.8796" transform="rotate(-30 563.374 319.58)" fill="#16141F"/>
<ellipse cx="591.781" cy="303.179" rx="8.00957" ry="10.8796" transform="rotate(-30 591.781 303.179)" fill="#16141F"/>
<ellipse cx="477.804" cy="368.173" rx="8.00957" ry="10.8796" transform="rotate(-30 477.804 368.173)" fill="#16141F"/>
<ellipse cx="449.397" cy="384.574" rx="8.00957" ry="10.8796" transform="rotate(-30 449.397 384.574)" fill="#16141F"/>
<ellipse cx="420.99" cy="400.975" rx="8.00957" ry="10.8796" transform="rotate(-30 420.99 400.975)" fill="#16141F"/>
<ellipse cx="392.584" cy="417.375" rx="8.00957" ry="10.8796" transform="rotate(-30 392.584 417.375)" fill="#16141F"/>
<ellipse cx="364.528" cy="434.384" rx="8.00957" ry="10.8796" transform="rotate(-30 364.528 434.384)" fill="#16141F"/>
<ellipse cx="335.77" cy="450.176" rx="8.00957" ry="10.8796" transform="rotate(-30 335.77 450.176)" fill="#16141F"/>
<ellipse cx="307.715" cy="467.185" rx="8.00957" ry="10.8796" transform="rotate(-30 307.715 467.185)" fill="#16141F"/>
<ellipse cx="279.309" cy="483.585" rx="8.00957" ry="10.8796" transform="rotate(-30 279.309 483.585)" fill="#16141F"/>
<ellipse cx="250.902" cy="499.986" rx="8.00957" ry="10.8796" transform="rotate(-30 250.902 499.986)" fill="#16141F"/>
<path d="M686.226 230.291C688.552 234.319 682.569 256.311 671.806 262.525C661.043 268.739 643.382 276.608 641.056 272.579C638.73 268.551 652.62 254.15 663.383 247.936C674.146 241.722 683.9 226.262 686.226 230.291Z" fill="#16141F"/>
</svg>
