<svg width="588" height="581" viewBox="0 0 588 581" fill="none" xmlns="http://www.w3.org/2000/svg">
<path d="M76.237 450.073L76.5838 449.933L76.9376 450.054L164.255 480.07L164.93 480.302V481.016V545.672V546.349L164.302 546.6L83.6007 578.928L83.2288 579.077L82.8569 578.928L2.15569 546.6L1.52754 546.349V545.672V481.016V480.342L2.15204 480.089L76.237 450.073Z" fill="black" stroke="white" stroke-width="2"/>
<path d="M81.9559 578V510.739L1.00003 479.923" stroke="white" stroke-width="2"/>
<path d="M81.9558 510.687L164.948 479.923" stroke="white" stroke-width="2"/>
<path d="M163.166 480.975L128.817 530.934L83.2287 511.331" stroke="white"/>
<path d="M164.184 545.396L138.727 516.998" stroke="white"/>
<path d="M83.2286 577.474L116.324 525.675" stroke="white"/>
<path d="M476.374 243L584.876 286.96V381.653L466.684 429L348.491 381.653V286.96L476.374 243Z" fill="black"/>
<path d="M468.548 429V330.492L587.113 285.36M468.548 330.416L347 285.36M349.61 286.901L399.917 360.068L466.684 331.358M348.119 381.248L385.403 339.658M466.684 428.23L418.214 352.366M476.374 243L584.876 286.96V381.653L466.684 429L348.491 381.653V286.96L476.374 243Z" stroke="white"/>
<path d="M440.74 128L332.237 171.96V266.653L450.43 314L568.622 266.653V171.96L440.74 128Z" fill="black"/>
<path d="M448.565 314V215.492L330 170.36M448.565 215.416L570.113 170.36M567.503 171.901L517.196 245.068L450.43 216.358M568.995 266.248L531.71 224.658M450.429 313.23L498.899 237.366M440.74 128L332.237 171.96V266.653L450.43 314L568.622 266.653V171.96L440.74 128Z" stroke="white"/>
<path d="M246.749 304.073L246.402 303.933L246.048 304.054L118.166 348.015L117.491 348.247V348.96V443.653V444.33L118.119 444.582L236.312 491.928L236.684 492.077L237.055 491.928L355.248 444.582L355.876 444.33V443.653V348.96V348.287L355.251 348.034L246.749 304.073Z" fill="black" stroke="white" stroke-width="2"/>
<path d="M238.548 491V392.492L357.113 347.36" stroke="white" stroke-width="2"/>
<path d="M238.548 392.416L117 347.36" stroke="white" stroke-width="2"/>
<path d="M119.61 348.901L169.917 422.068L236.684 393.358" stroke="white"/>
<path d="M118.119 443.249L155.403 401.658" stroke="white"/>
<path d="M236.684 490.23L188.214 414.366" stroke="white"/>
<path d="M251.374 206L359.876 249.96V344.653L241.684 392L123.491 344.653V249.96L251.374 206Z" fill="black"/>
<path d="M243.548 392V293.492L362.113 248.36M243.548 293.416L122 248.36M124.61 249.901L174.917 323.068L241.684 294.358M123.119 344.248L160.403 302.658M241.684 391.23L193.214 315.366M251.374 206L359.876 249.96V344.653L241.684 392L123.491 344.653V249.96L251.374 206Z" stroke="white"/>
<path d="M236.364 95.0732L236.711 94.9327L237.065 95.0543L364.947 139.015L365.622 139.247V139.96V234.653V235.33L364.994 235.582L246.802 282.928L246.43 283.077L246.058 282.928L127.865 235.582L127.237 235.33V234.653V139.96V139.287L127.862 139.034L236.364 95.0732Z" fill="black" stroke="white" stroke-width="2"/>
<path d="M244.565 282V183.492L126 138.36" stroke="white" stroke-width="2"/>
<path d="M244.565 183.416L366.113 138.36" stroke="white" stroke-width="2"/>
<path d="M363.503 139.901L313.196 213.068L246.43 184.358" stroke="white"/>
<path d="M364.995 234.249L327.71 192.658" stroke="white"/>
<path d="M246.429 281.23L294.899 205.366" stroke="white"/>
<path d="M217.364 2.07318L217.711 1.93269L218.065 2.05432L345.947 46.0146L346.622 46.2467V46.9603V141.653V142.33L345.994 142.582L227.802 189.928L227.43 190.077L227.058 189.928L108.865 142.582L108.237 142.33V141.653V46.9603V46.2865L108.862 46.0335L217.364 2.07318Z" fill="black" stroke="white" stroke-width="2"/>
<path d="M225.565 189V90.4919L107 45.3601" stroke="white" stroke-width="2"/>
<path d="M225.565 90.416L347.113 45.3601" stroke="white" stroke-width="2"/>
<path d="M344.503 46.9006L294.196 120.068L227.43 91.3585" stroke="white"/>
<path d="M345.995 141.249L308.71 99.6584" stroke="white"/>
<path d="M227.429 188.23L275.899 112.366" stroke="white"/>
<path d="M436.291 362.558L435.978 362.431L435.652 362.52L345.755 387.049L345.018 387.25V388.014V452.67V453.346L345.646 453.598L426.348 485.926L426.674 486.057L427.01 485.955L507.711 461.455L508.421 461.239V460.498V392.5V391.827L507.797 391.574L436.291 362.558Z" fill="black" stroke="white" stroke-width="2"/>
<path d="M427.992 484.998V417.738L507.5 392.499" stroke="white" stroke-width="2"/>
<path d="M427.992 417.686L345 386.922" stroke="white" stroke-width="2"/>
<path d="M346.782 387.974L381.131 437.932L426.72 418.329" stroke="white"/>
<path d="M345.764 452.394L371.222 423.997" stroke="white"/>
<path d="M426.72 484.473L393.625 432.673" stroke="white"/>
</svg>
