<svg width="235" height="344" viewBox="0 0 235 344" fill="none" xmlns="http://www.w3.org/2000/svg">
<path d="M112.043 173.218L111.682 173.065L111.313 173.198L1.93621 212.635L1.27539 212.873V213.576V298.525V299.189L1.88802 299.447L102.977 341.921L103.364 342.084L103.752 341.921L204.841 299.447L205.453 299.189V298.525V213.576V212.914L204.845 212.655L112.043 173.218Z" fill="black" stroke="white" stroke-width="2"/>
<path d="M104.959 340.999V252.628L206.367 212.14" stroke="white" stroke-width="2"/>
<path d="M104.959 252.56L1 212.14" stroke="white" stroke-width="2"/>
<path d="M3.23221 213.522L46.2594 279.161L103.365 253.405" stroke="white"/>
<path d="M1.95682 298.162L33.8461 260.851" stroke="white"/>
<path d="M103.365 340.308L61.9088 272.251" stroke="white"/>
<path d="M111.64 85.4974L111.971 85.3697L112.309 85.4801L233.08 124.917L233.769 125.142V125.868V210.817V211.506L233.125 211.751L121.506 254.226L121.15 254.361L120.794 254.226L9.17522 211.751L8.53087 211.506V210.817V125.868V125.181L9.17168 124.934L111.64 85.4974Z" fill="black" stroke="white" stroke-width="2"/>
<path d="M119.389 253.291V164.92L7.41816 124.432" stroke="white" stroke-width="2"/>
<path d="M119.389 164.852L234.177 124.432" stroke="white" stroke-width="2"/>
<path d="M231.712 125.814L184.203 191.453L121.149 165.697" stroke="white"/>
<path d="M233.121 210.454L197.91 173.143" stroke="white"/>
<path d="M121.149 252.6L166.924 184.543" stroke="white"/>
<path d="M106.88 2.06673L106.549 1.93907L106.211 2.0494L4.02064 35.419L3.33105 35.6442V36.3696V108.25V108.939L3.9754 109.184L98.4224 145.124L98.778 145.26L99.1337 145.124L193.581 109.184L194.225 108.939V108.25V36.3696V35.683L193.584 35.4364L106.88 2.06673Z" fill="black" stroke="white" stroke-width="2"/>
</svg>
