<svg width="1211" height="721" viewBox="0 0 1211 721" fill="none" xmlns="http://www.w3.org/2000/svg">
<mask id="path-1-inside-1_6_1331" fill="white">
<path d="M1110 512.931H1195C1203.84 512.931 1211 520.095 1211 528.931V623.931H1110V512.931Z"/>
</mask>
<path d="M1110 512.931H1195C1203.84 512.931 1211 520.095 1211 528.931V623.931H1110V512.931Z" fill="black"/>
<path d="M1110 511.931H1195C1204.39 511.931 1212 519.542 1212 528.931H1210C1210 520.647 1203.28 513.931 1195 513.931H1110V511.931ZM1211 623.931H1110H1211ZM1110 623.931V512.931V623.931ZM1195 511.931C1204.39 511.931 1212 519.542 1212 528.931V623.931H1210V528.931C1210 520.647 1203.28 513.931 1195 513.931V511.931Z" fill="white" mask="url(#path-1-inside-1_6_1331)"/>
<rect x="64.5" y="163.5" width="957" height="475" rx="29.5" fill="black" stroke="white"/>
<path d="M309.5 624.432C309.5 677.449 266.298 720.432 213 720.432C159.702 720.432 116.5 677.449 116.5 624.432C116.5 571.415 159.702 528.432 213 528.432C266.298 528.432 309.5 571.415 309.5 624.432Z" fill="black" stroke="white"/>
<path d="M932.5 624.432C932.5 677.449 889.298 720.432 836 720.432C782.702 720.432 739.5 677.449 739.5 624.432C739.5 571.415 782.702 528.432 836 528.432C889.298 528.432 932.5 571.415 932.5 624.432Z" fill="black" stroke="white"/>
<rect x="0.763605" y="1.2571" width="314.421" height="118.895" transform="matrix(0.960939 0.276759 -0.197334 0.980336 140.134 44.7445)" fill="white" stroke="#16141F" stroke-width="2"/>
<path d="M140.235 45.4604L269.285 167.202L443.378 132.768" stroke="#16141F" stroke-width="2"/>
<rect x="1.35707" y="0.567234" width="314.421" height="118.895" transform="matrix(0.939854 -0.341576 0.417211 0.90881 284.89 109.597)" fill="white" stroke="#16141F" stroke-width="2"/>
<path d="M285.662 109.287L461.64 131.802L582.154 1.53186" stroke="#16141F" stroke-width="2"/>
<rect x="1.35707" y="0.567234" width="314.421" height="118.895" transform="matrix(0.939854 -0.341576 0.417211 0.90881 416.845 180.528)" fill="white" stroke="#16141F" stroke-width="2"/>
<path d="M417.617 180.219L593.595 202.734L714.109 72.4635" stroke="#16141F" stroke-width="2"/>
<rect x="1.35707" y="0.567234" width="158.873" height="94.1345" transform="matrix(0.939854 -0.341576 0.417211 0.90881 238.845 83.465)" fill="white" stroke="#16141F" stroke-width="2"/>
<path d="M239.362 83.1597L338.588 115.859L390.103 28.3754" stroke="#16141F" stroke-width="2"/>
<path d="M950.5 365.431H1113C1123.77 365.431 1132.5 374.162 1132.5 384.931V623.431H988C967.289 623.431 950.5 606.642 950.5 585.931V365.431Z" fill="black" stroke="white"/>
<path d="M1144.5 643.932C1144.5 685.08 1111.37 718.432 1070.5 718.432C1029.63 718.432 996.5 685.08 996.5 643.932C996.5 602.783 1029.63 569.432 1070.5 569.432C1111.37 569.432 1144.5 602.783 1144.5 643.932Z" fill="black" stroke="white"/>
<circle cx="213" cy="623.932" r="39.5" fill="white" stroke="white"/>
<path d="M924 419.619H1087C1098.05 419.619 1107 428.573 1107 439.619V638.831H962C941.013 638.831 924 621.818 924 600.831V419.619Z" fill="black"/>
<path d="M1084 544.885H1169C1177.84 544.885 1185 552.048 1185 560.885V638.833H1084V544.885Z" fill="black"/>
<rect x="0.5" y="565.5" width="60" height="36" fill="black" stroke="white"/>
<rect x="47.5" y="170.5" width="957" height="489.901" rx="29.5" fill="black" stroke="white"/>
<circle cx="836" cy="623.932" r="39.5" fill="white" stroke="white"/>
<path d="M906.5 639.256C906.5 684.011 863.379 720.432 810 720.432C756.621 720.432 713.5 684.011 713.5 639.256C713.5 594.501 756.621 558.08 810 558.08C863.379 558.08 906.5 594.501 906.5 639.256Z" fill="black" stroke="white"/>
<path d="M849.5 638.832C849.5 657.178 831.897 672.187 810 672.187C788.103 672.187 770.5 657.178 770.5 638.832C770.5 620.485 788.103 605.477 810 605.477C831.897 605.477 849.5 620.485 849.5 638.832Z" fill="white" stroke="white"/>
<path d="M1099.5 643.932C1099.5 659.664 1086.52 672.432 1070.5 672.432C1054.48 672.432 1041.5 659.664 1041.5 643.932C1041.5 628.2 1054.48 615.432 1070.5 615.432C1086.52 615.432 1099.5 628.2 1099.5 643.932Z" fill="white" stroke="white"/>
<path d="M1118.5 655.76C1118.5 690.47 1085.45 718.738 1044.5 718.738C1003.55 718.738 970.5 690.47 970.5 655.76C970.5 621.05 1003.55 592.781 1044.5 592.781C1085.45 592.781 1118.5 621.05 1118.5 655.76Z" fill="black" stroke="white"/>
<path d="M1073.5 655.76C1073.5 668.957 1060.61 679.805 1044.5 679.805C1028.39 679.805 1015.5 668.957 1015.5 655.76C1015.5 642.562 1028.39 631.715 1044.5 631.715C1060.61 631.715 1073.5 642.562 1073.5 655.76Z" fill="white" stroke="white"/>
<path d="M283.5 639.256C283.5 684.011 240.379 720.432 187 720.432C133.621 720.432 90.5 684.011 90.5 639.256C90.5 594.501 133.621 558.08 187 558.08C240.379 558.08 283.5 594.501 283.5 639.256Z" fill="black" stroke="white"/>
<path d="M226.5 638.832C226.5 657.178 208.897 672.187 187 672.187C165.103 672.187 147.5 657.178 147.5 638.832C147.5 620.485 165.103 605.477 187 605.477C208.897 605.477 226.5 620.485 226.5 638.832Z" fill="white" stroke="white"/>
<path d="M1079 459C1079 454.581 1082.58 451 1087 451H1133V501H1087C1082.58 501 1079 497.418 1079 493V459Z" fill="#D9D9D9" fill-opacity="0.28"/>
<path d="M196.32 363.121H186.863V403.313H173V311.86H186.863V348.506H196.32V311.86H210.183V403.42H196.32V363.121Z" fill="white"/>
<path d="M234.04 404.387H231.354C220.285 404.387 214.374 398.369 214.374 387.085V368.708H228.13V384.721C228.13 388.912 229.527 391.169 232.643 391.169C235.975 391.169 237.157 388.912 237.157 383.324V381.282C237.157 374.727 236.512 372.47 231.461 365.914L222.757 354.416C216.846 346.786 215.126 340.875 215.126 331.74V328.839C215.126 316.695 221.252 311 232.213 311H234.793C246.184 311 250.698 316.05 250.698 326.904V341.95H237.264V328.731C237.264 325.615 236.62 323.358 233.288 323.358C229.957 323.358 229.204 325.4 229.204 329.806V331.525C229.204 336.684 230.172 339.478 234.9 345.603L243.712 356.995C249.945 365.162 251.987 369.783 251.987 380.1V383.001C251.987 396.435 246.184 404.387 234.04 404.387Z" fill="white"/>
<path d="M287.558 311.86V325.186H269.827V349.15H283.69V363.013H269.827V389.45H288.311V403.313H255.963V311.86H287.558Z" fill="white"/>
<path d="M325.816 386.119H315.714L313.887 403.313H301.421L312.598 311.752H329.04L340.969 403.313H327.535L325.816 386.119ZM324.311 372.47L320.658 338.619L317.111 372.47H324.311Z" fill="white"/>
<path d="M357.196 403.42H343.333V311.86H365.9C375.142 311.86 379.763 315.836 379.763 326.045V342.273C379.763 349.903 376.217 352.804 373.745 353.986C376.862 355.383 379.763 357.855 379.763 363.981V396.113C379.763 399.767 380.516 401.486 381.16 402.883V403.528H367.405C366.76 402.561 366.008 400.949 366.008 396.005V368.279C366.008 364.196 365.256 362.476 360.849 362.476H357.303V403.42H357.196ZM357.196 349.473H360.849C364.718 349.473 365.9 347.001 365.9 342.917V330.129C365.9 326.153 365.041 324.218 360.849 324.218H357.196V349.473Z" fill="white"/>
<path d="M407.812 325.078V403.313H394.056V325.078H382.343V311.86H419.526V325.186H407.812V325.078Z" fill="white"/>
<path d="M456.709 386.119H446.607L444.78 403.313H432.314L443.491 311.752H459.933L471.862 403.313H458.428L456.709 386.119ZM455.204 372.47L451.551 338.619L448.004 372.47H455.204Z" fill="white"/>
<path d="M486.692 311.86L498.621 360.972V311.86H511.302V403.42H500.018L486.692 350.762V403.42H474.119V311.86H486.692Z" fill="white"/>
<path d="M516.46 311.86H537.846C549.774 311.86 553.428 318.63 553.428 329.484V385.259C553.428 396.435 549.237 403.42 537.846 403.42H516.567V311.86H516.46ZM530.431 390.095H533.762C537.953 390.095 539.135 387.838 539.135 383.002V331.419C539.135 326.153 537.738 324.326 534.299 324.326H530.323V390.095H530.431Z" fill="white"/>
<path d="M173 408.15H194.278C206.207 408.15 209.861 414.92 209.861 425.774V481.549C209.861 492.725 205.67 499.711 194.278 499.711H173V408.15ZM186.863 486.492H190.194C194.386 486.492 195.568 484.236 195.568 479.4V427.816C195.568 422.55 194.171 420.723 190.732 420.723H186.756V486.492H186.863Z" fill="white"/>
<path d="M246.507 408.15V421.476H228.775V445.44H242.638V459.303H228.775V485.74H247.259V499.603H214.804V408.15H246.507Z" fill="white"/>
<path d="M269.396 500.675H266.71C255.641 500.675 249.73 494.657 249.73 483.373V464.996H263.486V481.009C263.486 485.2 264.883 487.457 267.999 487.457C271.331 487.457 272.513 485.2 272.513 479.612V477.57C272.513 471.015 271.868 468.758 266.817 462.202L258.005 450.919C252.094 443.288 250.375 437.378 250.375 428.243V425.342C250.375 413.198 256.501 407.502 267.462 407.502H270.041C281.54 407.502 285.946 412.553 285.946 423.407V438.453H272.513V425.234C272.513 422.118 271.868 419.861 268.537 419.861C265.205 419.861 264.453 421.903 264.453 426.309V428.028C264.453 433.187 265.42 435.981 270.149 442.106L278.961 453.498C285.194 461.665 287.236 466.286 287.236 476.603V479.504C287.343 492.723 281.54 500.675 269.396 500.675Z" fill="white"/>
<path d="M305.183 499.711H291.32V408.15H305.183V499.711Z" fill="white"/>
<path d="M323.237 500.999C315.069 500.999 309.911 493.692 309.911 484.235V426.956C309.911 416.747 313.887 407.29 326.998 407.29H329.685C344.622 407.29 346.342 416.961 346.342 427.815V437.165H332.801V426.848C332.801 422.765 331.834 420.615 328.395 420.615C325.494 420.615 324.097 422.872 324.097 426.848V480.366C324.097 484.665 325.816 486.921 328.61 486.921C332.156 486.921 333.768 484.45 333.768 481.011V458.121H327.535V444.043H346.987V499.71H339.142C339.034 499.173 337.96 494.659 336.777 490.683C335.81 493.799 331.082 500.892 324.097 500.892H323.237V500.999Z" fill="white"/>
<path d="M364.396 408.15L376.325 457.262V408.15H389.005V499.711H377.722L364.396 447.052V499.711H351.822V408.15H364.396Z" fill="white"/>
<path d="M425.329 500.675H422.642C411.573 500.675 405.662 494.657 405.662 483.373V464.996H419.418V481.009C419.418 485.2 420.815 487.457 423.932 487.457C427.263 487.457 428.445 485.2 428.445 479.612V477.57C428.445 471.015 427.8 468.758 422.749 462.202L413.937 450.919C408.027 443.288 406.307 437.378 406.307 428.243V425.342C406.307 413.198 412.433 407.502 423.394 407.502H425.973C437.365 407.502 441.878 412.553 441.878 423.407V438.453H428.445V425.234C428.445 422.118 427.8 419.861 424.469 419.861C421.137 419.861 420.385 421.903 420.385 426.309V428.028C420.385 433.187 421.352 435.981 426.081 442.106L434.893 453.498C441.126 461.665 443.168 466.286 443.168 476.603V479.504C443.275 492.723 437.472 500.675 425.329 500.675Z" fill="white"/>
<path d="M469.927 481.118V459.84H483.575V481.011C483.575 490.898 480.351 500.785 466.918 500.785H463.802C449.724 500.785 446.715 490.683 446.715 481.441V425.559C446.715 416.209 450.798 407.182 463.372 407.182H466.596C481.856 407.182 483.575 417.284 483.575 426.204V442.538H469.927V426.418C469.927 422.442 468.745 420.4 465.199 420.4C461.76 420.4 460.9 422.335 460.9 426.418V480.796C460.9 484.88 462.297 487.029 465.306 487.029C468.745 487.351 469.927 484.88 469.927 481.118Z" fill="white"/>
<path d="M511.409 459.518H501.952V499.711H488.089V408.15H501.952V444.796H511.409V408.15H525.272V499.711H511.409V459.518Z" fill="white"/>
<path d="M568.15 479.291C568.15 492.08 563.852 500.785 550.419 500.785H548.054C534.729 500.785 530.108 492.08 530.108 479.291V428.353C530.108 415.672 534.944 407.29 547.947 407.29H550.311C563.852 407.29 568.15 415.672 568.15 428.245V479.291V479.291ZM553.965 427.601C553.965 422.765 552.353 420.615 549.129 420.615C545.583 420.615 544.186 422.98 544.186 427.601V480.259C544.186 484.235 545.26 487.244 549.237 487.244C552.89 487.244 553.965 484.127 553.965 480.259V427.601V427.601Z" fill="white"/>
<path d="M610.599 479.291C610.599 492.08 606.301 500.785 592.868 500.785H590.503C577.178 500.785 572.557 492.08 572.557 479.291V428.353C572.557 415.672 577.393 407.29 590.396 407.29H592.76C606.301 407.29 610.599 415.672 610.599 428.245V479.291V479.291ZM596.414 427.601C596.414 422.765 594.802 420.615 591.578 420.615C588.032 420.615 586.635 422.98 586.635 427.601V480.259C586.635 484.235 587.709 487.244 591.686 487.244C595.339 487.244 596.414 484.127 596.414 480.259V427.601V427.601Z" fill="white"/>
<path d="M629.298 408.15V485.525H646.278V499.711H615.435V408.15H629.298Z" fill="white"/>
<rect width="1" height="33" transform="matrix(-1 0 0 1 1133 514)" fill="black"/>
</svg>
