<svg width="1783" height="268" viewBox="0 0 1783 268" fill="none" xmlns="http://www.w3.org/2000/svg">
<mask id="path-1-inside-1_6_1326" fill="white">
<path d="M0 0H431V268H0V0Z"/>
</mask>
<path d="M0 0H431V268H0V0Z" fill="black"/>
<path d="M0 9H431V-9H0V9Z" fill="#B400AD" mask="url(#path-1-inside-1_6_1326)"/>
<mask id="path-3-inside-2_6_1326" fill="white">
<path d="M676 0H1107V268H676V0Z"/>
</mask>
<path d="M676 0H1107V268H676V0Z" fill="black"/>
<path d="M676 9H1107V-9H676V9Z" fill="#B400AD" mask="url(#path-3-inside-2_6_1326)"/>
<mask id="path-5-inside-3_6_1326" fill="white">
<path d="M1352 0H1783V268H1352V0Z"/>
</mask>
<path d="M1352 0H1783V268H1352V0Z" fill="black"/>
<path d="M1352 9H1783V-9H1352V9Z" fill="#B400AD" mask="url(#path-5-inside-3_6_1326)"/>
<mask id="path-7-inside-4_6_1326" fill="white">
<path d="M431 115H676V268H431V115Z"/>
</mask>
<path d="M431 115H676V268H431V115Z" fill="black"/>
<path d="M431 124H676V106H431V124Z" fill="#B400AD" mask="url(#path-7-inside-4_6_1326)"/>
<mask id="path-9-inside-5_6_1326" fill="white">
<path d="M1107 115H1352V268H1107V115Z"/>
</mask>
<path d="M1107 115H1352V268H1107V115Z" fill="black"/>
<path d="M1107 124H1352V106H1107V124Z" fill="#B400AD" mask="url(#path-9-inside-5_6_1326)"/>
<rect x="347.5" y="31.5" width="65" height="55" fill="black" stroke="white" stroke-dasharray="2 2"/>
<rect x="1022.5" y="31.5" width="65" height="55" fill="black" stroke="white" stroke-dasharray="2 2"/>
<path d="M378.08 73.64C376.187 73.64 374.627 72.88 373.4 71.36C372.2 69.84 371.6 67.56 371.6 64.52C371.6 62.6 371.947 60.44 372.64 58.04C373.333 55.6133 374.307 53.4 375.56 51.4C376.92 49.2133 378.453 47.6 380.16 46.56C381.893 45.52 383.587 45 385.24 45C385.88 45 386.493 45.1067 387.08 45.32C387.693 45.5333 388.2 45.8133 388.6 46.16C389.48 46.9067 389.92 47.92 389.92 49.2C389.92 50.2933 389.64 51.1867 389.08 51.88C388.52 52.5733 387.853 52.92 387.08 52.92C386.52 52.92 386.053 52.7733 385.68 52.48C385.333 52.16 385.16 51.7333 385.16 51.2C385.16 50.48 385.347 49.96 385.72 49.64C386.12 49.2933 386.547 49.08 387 49C387.667 48.84 388 48.5067 388 48C388 47.7867 387.96 47.6 387.88 47.44C387.8 47.2533 387.613 47.04 387.32 46.8C386.84 46.4533 386.12 46.28 385.16 46.28C383.88 46.28 382.6 46.8533 381.32 48C380.067 49.1467 379.013 50.6267 378.16 52.44C377.12 54.6 376.44 56.8267 376.12 59.12L376.4 59.32C377.093 58.2533 377.96 57.4267 379 56.84C380.04 56.2533 381.107 55.96 382.2 55.96C384.147 55.96 385.653 56.5867 386.72 57.84C387.813 59.0667 388.36 60.64 388.36 62.56C388.36 63.9467 388.053 65.36 387.44 66.8C386.853 68.2133 386.08 69.4533 385.12 70.52C384.373 71.32 383.413 72.04 382.24 72.68C381.093 73.32 379.707 73.64 378.08 73.64ZM378.4 72.36C379.36 72.36 380.24 72.0533 381.04 71.44C381.867 70.8 382.56 69.9733 383.12 68.96C383.68 67.92 384.107 66.76 384.4 65.48C384.72 64.2 384.88 62.92 384.88 61.64C384.88 60.4133 384.6 59.4 384.04 58.6C383.507 57.8 382.72 57.4 381.68 57.4C379.467 57.4 377.613 59.0667 376.12 62.4C375.453 63.8667 375.12 65.8 375.12 68.2C375.12 69.4267 375.413 70.4267 376 71.2C376.613 71.9733 377.413 72.36 378.4 72.36Z" fill="white"/>
<path d="M1051.32 73.68C1050.52 73.68 1049.89 73.44 1049.44 72.96C1048.99 72.48 1048.76 71.7733 1048.76 70.84C1048.76 69.4533 1049.43 67.8267 1050.76 65.96C1052.12 64.0933 1053.8 62.04 1055.8 59.8L1063.32 51.48L1063.16 51.32C1062.92 51.48 1062.64 51.6 1062.32 51.68C1062.03 51.76 1061.77 51.8 1061.56 51.8C1060.73 51.8 1060.03 51.6533 1059.44 51.36C1058.85 51.04 1058.2 50.5733 1057.48 49.96C1056.92 49.48 1056.43 49.12 1056 48.88C1055.6 48.64 1055.15 48.52 1054.64 48.52C1053.81 48.52 1053.11 48.8267 1052.52 49.44C1051.96 50.0533 1051.33 51.04 1050.64 52.4L1049.8 54.04H1049.04L1051.76 44.92H1052.52C1052.41 45.2667 1052.36 45.6533 1052.36 46.08C1052.36 46.4267 1052.41 46.7067 1052.52 46.92C1052.63 47.1333 1052.8 47.24 1053.04 47.24C1053.73 46.6267 1054.39 46.16 1055 45.84C1055.64 45.4933 1056.36 45.32 1057.16 45.32C1057.85 45.32 1058.48 45.5333 1059.04 45.96C1059.6 46.3867 1060.15 46.96 1060.68 47.68C1061.19 48.3733 1061.65 48.9067 1062.08 49.28C1062.53 49.6267 1063.03 49.8 1063.56 49.8C1064.12 49.8 1064.52 49.6933 1064.76 49.48C1065.03 49.2667 1065.16 49.0267 1065.16 48.76C1065.16 48.4133 1065 48.16 1064.68 48C1064.49 47.8667 1064.35 47.7333 1064.24 47.6C1064.16 47.44 1064.12 47.2267 1064.12 46.96C1064.12 46.56 1064.23 46.2667 1064.44 46.08C1064.68 45.8667 1064.93 45.76 1065.2 45.76C1066.19 45.76 1066.68 46.4 1066.68 47.68C1066.68 48.3733 1066.43 49.1067 1065.92 49.88C1065.41 50.6267 1064.6 51.6533 1063.48 52.96C1060.63 56.2933 1058.67 58.6533 1057.6 60.04C1056.56 61.4267 1055.72 62.8933 1055.08 64.44C1054.6 65.6133 1054.28 66.6667 1054.12 67.6C1053.96 68.5067 1053.88 69.48 1053.88 70.52C1053.88 71.5067 1053.64 72.28 1053.16 72.84C1052.71 73.4 1052.09 73.68 1051.32 73.68Z" fill="white"/>
<rect x="29" y="126" width="180" height="16" fill="#B400AD"/>
<rect x="802" y="126" width="180" height="16" fill="#B400AD"/>
<rect x="1506" y="126" width="180" height="16" fill="#B400AD"/>
</svg>
