<svg width="994" height="494" viewBox="0 0 994 494" fill="none" xmlns="http://www.w3.org/2000/svg">
<rect x="1.00726" y="1.35388" width="991.763" height="491.565" fill="white" stroke="#B400AD"/>
<path d="M2.00677 2.50757L475.894 334.741L991.771 2.50757" stroke="#B400AD"/>
<path d="M562 322.603C555.554 356.524 528.56 390.415 490.291 390.415C429.057 379.935 421 360.055 421 322.603C421 285.152 465.314 258.036 499.96 254C537.829 258.036 562 285.152 562 322.603Z" fill="#16141F"/>
<path d="M542.012 321.061C542.012 348.963 519.648 371.573 492.073 371.573C464.498 371.573 442.134 348.963 442.134 321.061C442.134 293.159 464.498 270.549 492.073 270.549C519.648 270.549 542.012 293.159 542.012 321.061Z" fill="#16141F" stroke="white"/>
</svg>
