<svg width="825" height="466" viewBox="0 0 825 466" fill="none" xmlns="http://www.w3.org/2000/svg">
<path fill-rule="evenodd" clip-rule="evenodd" d="M816 83L221 82.9999L221 78L816 78.0001L816 83Z" fill="white"/>
<path fill-rule="evenodd" clip-rule="evenodd" d="M821 251L193 251L193 246L821 246L821 251Z" fill="white"/>
<path fill-rule="evenodd" clip-rule="evenodd" d="M821 323H8V319H821V323Z" fill="white"/>
<path fill-rule="evenodd" clip-rule="evenodd" d="M824 161H11V157H824V161Z" fill="white"/>
<g filter="url(#filter0_d_4_1042)">
<path fill-rule="evenodd" clip-rule="evenodd" d="M821 396H238V391H821V396Z" fill="white"/>
</g>
<path fill-rule="evenodd" clip-rule="evenodd" d="M821 466H0V462H821V466Z" fill="white"/>
<path d="M191.114 62.7516C190.116 62.7516 189.284 62.4248 188.618 61.7711C187.99 61.079 187.675 60.2138 187.675 59.1756C187.675 58.1374 187.99 57.2914 188.618 56.6377C189.284 55.9456 190.116 55.5995 191.114 55.5995C192.113 55.5995 192.926 55.9456 193.555 56.6377C194.22 57.2914 194.553 58.1374 194.553 59.1756C194.553 60.2138 194.22 61.079 193.555 61.7711C192.926 62.4248 192.113 62.7516 191.114 62.7516ZM191.114 83.2852C190.116 83.2852 189.284 82.9583 188.618 82.3046C187.99 81.6125 187.675 80.7473 187.675 79.7091C187.675 78.6709 187.99 77.825 188.618 77.1713C189.284 76.4791 190.116 76.1331 191.114 76.1331C192.113 76.1331 192.926 76.4791 193.555 77.1713C194.22 77.825 194.553 78.6709 194.553 79.7091C194.553 80.7473 194.22 81.6125 193.555 82.3046C192.926 82.9583 192.113 83.2852 191.114 83.2852Z" fill="white"/>
<path d="M169.589 83.2852C167.555 83.2852 165.688 82.6699 163.987 81.4395C162.286 80.1705 160.936 78.4786 159.938 76.3638C158.977 74.2489 158.496 71.9418 158.496 69.4424C158.496 66.943 158.977 64.6358 159.938 62.5209C160.936 60.4061 162.286 58.7334 163.987 57.5029C165.688 56.234 167.555 55.5995 169.589 55.5995C171.623 55.5995 173.491 56.234 175.192 57.5029C176.893 58.7334 178.224 60.4061 179.185 62.5209C180.184 64.6358 180.683 66.943 180.683 69.4424C180.683 71.9418 180.184 74.2489 179.185 76.3638C178.224 78.4786 176.893 80.1705 175.192 81.4395C173.491 82.6699 171.623 83.2852 169.589 83.2852ZM169.589 81.9009C171.808 81.9009 173.398 80.8242 174.359 78.6709C175.321 76.4791 175.802 73.4029 175.802 69.4424C175.802 65.4818 175.321 62.4248 174.359 60.2715C173.398 58.0797 171.808 56.9838 169.589 56.9838C167.371 56.9838 165.781 58.0797 164.819 60.2715C163.858 62.4248 163.377 65.4818 163.377 69.4424C163.377 73.4029 163.858 76.4791 164.819 78.6709C165.781 80.8242 167.371 81.9009 169.589 81.9009Z" fill="white"/>
<path d="M136.653 81.2107H138.982C139.426 81.2107 139.74 81.1145 139.925 80.9223C140.11 80.73 140.203 80.4032 140.203 79.9417V58.9468C140.203 58.4853 140.11 58.1585 139.925 57.9662C139.74 57.774 139.426 57.6778 138.982 57.6778H136.653V56.2935H156.177L156.51 66.445H155.401C155.401 66.1758 155.253 65.426 154.957 64.1955C154.698 62.9266 154.291 61.7153 153.737 60.5618C153.293 59.6774 152.664 58.9852 151.851 58.4853C151.037 57.947 150.039 57.6778 148.856 57.6778H145.417C144.973 57.6778 144.658 57.774 144.474 57.9662C144.289 58.1585 144.196 58.4853 144.196 58.9468V79.9417C144.196 80.4032 144.289 80.73 144.474 80.9223C144.658 81.1145 144.973 81.2107 145.417 81.2107H147.746V82.5949H136.653V81.2107Z" fill="white"/>
<path d="M120.785 83.2852C118.751 83.2852 116.884 82.6699 115.183 81.4395C113.482 80.1705 112.132 78.4786 111.134 76.3638C110.172 74.2489 109.692 71.9418 109.692 69.4424C109.692 66.943 110.172 64.6358 111.134 62.5209C112.132 60.4061 113.482 58.7334 115.183 57.5029C116.884 56.234 118.751 55.5995 120.785 55.5995C122.819 55.5995 124.686 56.234 126.387 57.5029C128.088 58.7334 129.42 60.4061 130.381 62.5209C131.379 64.6358 131.879 66.943 131.879 69.4424C131.879 71.9418 131.379 74.2489 130.381 76.3638C129.42 78.4786 128.088 80.1705 126.387 81.4395C124.686 82.6699 122.819 83.2852 120.785 83.2852ZM120.785 81.9009C123.004 81.9009 124.594 80.8242 125.555 78.6709C126.517 76.4791 126.997 73.4029 126.997 69.4424C126.997 65.4818 126.517 62.4248 125.555 60.2715C124.594 58.0797 123.004 56.9838 120.785 56.9838C118.566 56.9838 116.976 58.0797 116.015 60.2715C115.053 62.4248 114.573 65.4818 114.573 69.4424C114.573 73.4029 115.053 76.4791 116.015 78.6709C116.976 80.8242 118.566 81.9009 120.785 81.9009Z" fill="white"/>
<path d="M100.985 83.2852C99.2098 83.2852 97.9526 82.7853 97.213 81.7855C96.5104 80.7473 96.1221 79.1323 96.0482 76.9406C95.9742 74.2489 95.6784 72.3455 95.1607 71.2304C94.68 70.1153 93.7555 69.5577 92.3873 69.5577H88.8374V79.9398C88.8374 80.4013 88.9299 80.7281 89.1147 80.9204C89.2996 81.1126 89.6139 81.2088 90.0577 81.2088H92.3873V82.593H81.2938V81.2088H83.6235C84.0672 81.2088 84.3815 81.1126 84.5664 80.9204C84.7513 80.7281 84.8438 80.4013 84.8438 79.9398V59.0025C84.8438 58.5411 84.7513 58.2143 84.5664 58.022C84.3815 57.8298 84.0672 57.7336 83.6235 57.7336H81.2938V56.3493H92.3873V57.7336H90.0577C89.6139 57.7336 89.2996 57.8298 89.1147 58.022C88.9299 58.2143 88.8374 58.5411 88.8374 59.0025V68.1734H92.4428C93.6631 68.1734 94.5136 67.4428 94.9943 65.9816C95.512 64.482 95.8448 62.6555 95.9927 60.5022C96.1036 58.8487 96.5289 57.6183 97.2685 56.8108C98.045 56.0033 98.951 55.5995 99.9864 55.5995C101.207 55.5995 102.113 56.0225 102.704 56.8684C103.333 57.7144 103.647 58.6565 103.647 59.6947C103.647 60.7329 103.351 61.5789 102.76 62.2325C102.168 62.8862 101.466 63.2131 100.652 63.2131C99.9124 63.2131 99.3393 63.0016 98.9325 62.5786C98.5257 62.1556 98.3223 61.6365 98.3223 61.0213C98.3223 60.6752 98.4148 60.3484 98.5997 60.0408C98.7846 59.6947 98.988 59.4447 99.2098 59.2909C99.6166 58.9833 99.82 58.6565 99.82 58.3104C99.82 57.7721 99.5241 57.5029 98.9325 57.5029C98.4888 57.5029 98.1005 57.7721 97.7677 58.3104C97.4719 58.8103 97.3055 59.5217 97.2685 60.4445C97.1575 62.4056 96.8617 64.1936 96.381 65.8086C95.9003 67.4236 95.1237 68.4234 94.0514 68.8079V68.9809C96.381 69.6731 98.082 70.7305 99.1544 72.1532C99.6721 72.8069 100.042 73.5952 100.264 74.5181C100.486 75.4409 100.652 76.5176 100.763 77.748C100.874 78.8247 101.04 79.6707 101.262 80.2859C101.521 80.9011 101.928 81.2088 102.482 81.2088C103.37 81.2088 103.962 80.6512 104.257 79.5361C104.553 78.421 104.701 77.2482 104.701 76.0177H105.7C105.7 77.825 105.367 79.4976 104.701 81.0357C104.072 82.5354 102.834 83.2852 100.985 83.2852Z" fill="white"/>
<path d="M45.0215 81.2107H47.3511C47.7949 81.2107 48.1092 81.1145 48.2941 80.9223C48.479 80.73 48.5714 80.4032 48.5714 79.9417V58.9468C48.5714 58.4853 48.479 58.1585 48.2941 57.9662C48.1092 57.774 47.7949 57.6778 47.3511 57.6778C46.1678 57.6778 45.1694 57.947 44.3559 58.4853C43.5424 58.9852 42.9137 59.6774 42.47 60.5618C41.9153 61.7153 41.4901 62.9266 41.1942 64.1955C40.9354 65.426 40.806 66.1758 40.806 66.445H39.6966L40.0849 56.2935H61.1071L61.4399 66.445H60.3305C60.3305 66.1758 60.1826 65.426 59.8868 64.1955C59.6279 62.9266 59.2212 61.7153 58.6665 60.5618C58.2228 59.6774 57.5941 58.9852 56.7806 58.4853C55.9671 57.947 54.9687 57.6778 53.7854 57.6778C53.3416 57.6778 53.0273 57.774 52.8424 57.9662C52.6575 58.1585 52.5651 58.4853 52.5651 58.9468V79.9417C52.5651 80.4032 52.6575 80.73 52.8424 80.9223C53.0273 81.1145 53.3416 81.2107 53.7854 81.2107H56.115V82.5949H45.0215V81.2107Z" fill="white"/>
<path d="M18.6071 83.6328C15.5009 83.6328 12.7275 82.6138 10.2869 80.5758C7.84636 78.5378 5.94198 75.8654 4.57378 72.5585C3.20558 69.2131 2.52148 65.714 2.52148 62.061C2.52148 58.408 3.20558 54.9281 4.57378 51.6212C5.94198 48.2759 7.84636 45.5842 10.2869 43.5462C12.7275 41.5082 15.5009 40.4893 18.6071 40.4893C21.7132 40.4893 24.4866 41.5082 26.9272 43.5462C29.3678 45.5842 31.2721 48.2759 32.6403 51.6212C34.0085 54.9281 34.6926 58.408 34.6926 62.061C34.6926 65.714 34.0085 69.2131 32.6403 72.5585C31.2721 75.8654 29.3678 78.5378 26.9272 80.5758C24.4866 82.6138 21.7132 83.6328 18.6071 83.6328ZM18.6071 81.787C22.2309 81.787 24.8379 80.0759 26.428 76.6537C28.018 73.193 28.8131 68.3287 28.8131 62.061C28.8131 55.7548 28.018 50.8906 26.428 47.4684C24.8379 44.0461 22.2309 42.335 18.6071 42.335C14.9832 42.335 12.3762 44.0461 10.7861 47.4684C9.19607 50.8906 8.40104 55.7548 8.40104 62.061C8.40104 68.3287 9.19607 73.193 10.7861 76.6537C12.3762 80.0759 14.9832 81.787 18.6071 81.787Z" fill="white"/>
<path d="M755.917 54.6769C753.025 54.6769 750.696 53.6718 748.931 51.6617C747.215 49.6025 746.357 46.4402 746.357 42.1748C746.357 38.7429 747.166 35.3354 748.784 31.9525C750.451 28.5206 752.657 25.726 755.403 23.5688C758.148 21.3625 761.065 20.2594 764.154 20.2594C766.311 20.2594 768.052 20.8968 769.375 22.1715C770.699 23.4462 771.361 24.9416 771.361 26.6575C771.361 28.7167 770.43 30.4082 768.567 31.7319C766.752 33.0557 764.791 33.9627 762.683 34.4529L762.61 34.8207C764.473 34.8207 766.115 35.507 767.537 36.8798C769.008 38.2526 769.743 40.0421 769.743 42.2484C769.743 44.6507 769.106 46.808 767.831 48.72C766.556 50.5831 764.84 52.0539 762.683 53.1325C760.575 54.1621 758.32 54.6769 755.917 54.6769ZM758.05 34.6C760.55 34.0117 762.634 32.9821 764.301 31.5113C765.968 30.0404 766.802 28.2019 766.802 25.9957C766.802 24.7209 766.507 23.7404 765.919 23.054C765.38 22.3676 764.644 22.0244 763.713 22.0244C762.389 22.0244 761.163 22.4656 760.036 23.3481C758.908 24.1816 757.78 25.6034 756.653 27.6136C756.015 28.6922 755.354 30.065 754.667 31.7319C754.03 33.3498 753.564 34.7471 753.27 35.9238L758.05 34.6ZM756.359 52.9119C757.977 52.9119 759.398 52.3971 760.624 51.3675C761.85 50.2889 762.781 48.9407 763.419 47.3227C764.105 45.6558 764.448 43.9889 764.448 42.3219C764.448 40.5569 763.982 39.1596 763.051 38.13C762.119 37.1004 760.82 36.5857 759.153 36.5857C756.555 36.5857 754.397 37.1495 752.682 38.2771C751.995 41.3168 751.652 43.8418 751.652 45.8519C751.652 48.3033 752.044 50.0928 752.829 51.2205C753.613 52.3481 754.79 52.9119 756.359 52.9119Z" fill="white"/>
<path d="M722.242 54.6769C720.575 54.6769 718.981 54.2111 717.461 53.2796C715.99 52.2991 714.765 50.8282 713.784 48.8671C712.853 46.906 712.387 44.5282 712.387 41.7336C712.387 38.3016 713.196 34.9187 714.814 31.5848C716.481 28.2509 718.687 25.5299 721.433 23.4217C724.178 21.3135 727.095 20.2594 730.184 20.2594C731.851 20.2594 733.42 20.7497 734.891 21.7302C736.362 22.6618 737.563 24.1081 738.494 26.0692C739.426 28.0303 739.892 30.4082 739.892 33.2027C739.892 36.6347 739.083 40.0176 737.465 43.3515C735.847 46.6854 733.665 49.4064 730.919 51.5146C728.223 53.6228 725.33 54.6769 722.242 54.6769ZM722.536 52.9119C724.497 52.9119 726.139 52.1275 727.463 50.5586C728.787 48.9897 730.012 46.8815 731.14 44.234C732.17 41.8316 733.003 39.2332 733.64 36.4386C734.278 33.644 734.597 31.0945 734.597 28.7902C734.597 26.7801 734.204 25.1622 733.42 23.9365C732.635 22.6618 731.459 22.0244 729.89 22.0244C727.929 22.0244 726.262 22.8334 724.889 24.4513C723.516 26.0202 722.266 28.1038 721.138 30.7023C720.109 33.1047 719.275 35.7032 718.638 38.4977C718.001 41.2923 717.682 43.8418 717.682 46.1461C717.682 48.1562 718.099 49.7986 718.932 51.0734C719.766 52.2991 720.967 52.9119 722.536 52.9119Z" fill="white"/>
<path d="M695.189 54.6769C693.719 54.6769 692.468 54.2111 691.439 53.2796C690.409 52.3481 689.894 50.8527 689.894 48.7936C689.894 47.4208 690.238 45.8029 690.924 43.9398C690.973 43.7437 691.096 43.3025 691.292 42.6161C691.537 41.8807 691.659 41.1698 691.659 40.4834C691.659 39.4048 691.439 38.5958 690.998 38.0565C690.556 37.4682 689.649 37.174 688.276 37.174H683.717L679.157 53.7944H674.304L680.481 31.2907C680.53 31.0455 680.751 30.1875 681.143 28.7167C681.584 27.1968 681.805 25.9221 681.805 24.8925C681.805 23.4707 681.315 22.7598 680.334 22.7598C678.961 22.7598 677.564 23.912 676.142 26.2163C674.769 28.4716 673.519 31.2416 672.391 34.5265L670.921 34.0852C672.244 30.3591 673.764 27.1233 675.48 24.3777C677.196 21.6322 679.28 20.2594 681.731 20.2594C682.663 20.2594 683.472 20.6026 684.158 21.289C684.894 21.9263 685.384 22.6372 685.629 23.4217C685.923 24.4513 686.07 25.6525 686.07 27.0252C686.07 27.9077 685.752 29.6237 685.114 32.1732L684.232 35.409H688.938C690.213 35.409 691.39 34.4775 692.468 32.6144C693.547 30.7514 694.478 28.5206 695.263 25.9221C695.9 23.8139 696.783 22.3431 697.91 21.5096C699.038 20.6761 700.239 20.2594 701.514 20.2594C702.2 20.2594 702.862 20.431 703.5 20.7742C704.137 21.1174 704.603 21.4851 704.897 21.8773C705.387 22.5147 705.706 23.103 705.853 23.6423C706 24.1816 706.074 24.819 706.074 25.5544C706.074 26.8782 705.706 27.9813 704.97 28.8638C704.284 29.6973 703.426 30.114 702.396 30.114C701.71 30.114 701.097 29.8934 700.558 29.4521C700.019 29.0109 699.749 28.398 699.749 27.6136C699.749 26.9272 699.97 26.2653 700.411 25.6279C700.754 25.0886 700.926 24.6719 700.926 24.3777C700.926 23.9855 700.828 23.6913 700.631 23.4952C700.435 23.2991 700.068 23.2011 699.528 23.2011C698.842 23.2011 698.303 23.4462 697.91 23.9365C697.518 24.4268 697.175 25.1377 696.881 26.0692C696.244 28.1774 695.435 30.2611 694.454 32.3202C693.473 34.3794 692.517 35.5806 691.586 35.9238L691.512 36.2915C692.787 36.3895 693.915 36.9534 694.895 37.983C695.876 38.9635 696.366 40.2627 696.366 41.8807C696.366 43.1554 696.072 44.7733 695.484 46.7344C695.091 48.3033 694.895 49.3574 694.895 49.8967C694.895 50.485 695.018 50.9998 695.263 51.4411C695.508 51.8823 695.9 52.103 696.44 52.103C696.734 52.103 697.003 52.0539 697.249 51.9559C697.494 51.8578 697.837 51.6372 698.278 51.294C699.553 50.3625 700.607 49.0387 701.44 47.3227C702.274 45.5577 703.23 43.2534 704.309 40.4098L705.779 40.8511C702.593 50.0683 699.063 54.6769 695.189 54.6769Z" fill="white"/>
<path d="M647.961 54.6769C646.294 54.6769 644.701 54.2111 643.181 53.2796C641.71 52.2991 640.485 50.8282 639.504 48.8671C638.572 46.906 638.107 44.5282 638.107 41.7336C638.107 40.5079 638.229 39.2332 638.474 37.9094H632.223L627.811 53.7944H622.957L629.061 31.2907C629.846 28.1529 630.238 25.9711 630.238 24.7454C630.238 24.0591 630.14 23.5688 629.944 23.2746C629.747 22.9314 629.38 22.7598 628.84 22.7598C627.468 22.7598 626.07 23.912 624.649 26.2163C623.276 28.4716 622.026 31.2416 620.898 34.5265L619.427 34.0852C620.751 30.3591 622.271 27.1233 623.987 24.3777C625.703 21.6322 627.786 20.2594 630.238 20.2594C633.081 20.2594 634.503 22.7598 634.503 27.7607C634.503 28.7412 634.258 30.212 633.768 32.1732L632.665 36.1444H638.842C639.627 33.3498 640.877 30.7513 642.593 28.349C644.309 25.8976 646.319 23.9365 648.623 22.4656C650.977 20.9948 653.403 20.2594 655.904 20.2594C657.571 20.2594 659.14 20.7497 660.61 21.7302C662.081 22.6618 663.282 24.1081 664.214 26.0692C665.146 28.0303 665.611 30.4082 665.611 33.2027C665.611 36.6347 664.802 40.0176 663.184 43.3515C661.567 46.6854 659.385 49.4064 656.639 51.5146C653.943 53.6228 651.05 54.6769 647.961 54.6769ZM648.255 52.9119C650.217 52.9119 651.859 52.1275 653.183 50.5586C654.507 48.9897 655.732 46.8815 656.86 44.234C657.889 41.8316 658.723 39.2332 659.36 36.4386C659.998 33.644 660.316 31.0945 660.316 28.7902C660.316 26.7801 659.924 25.1622 659.14 23.9365C658.355 22.6618 657.179 22.0244 655.61 22.0244C653.649 22.0244 651.982 22.8334 650.609 24.4513C649.236 26.0202 647.986 28.1038 646.858 30.7023C645.829 33.1047 644.995 35.7032 644.358 38.4977C643.72 41.2923 643.402 43.8418 643.402 46.1461C643.402 48.1562 643.818 49.7986 644.652 51.0734C645.485 52.2991 646.687 52.9119 648.255 52.9119Z" fill="white"/>
<path d="M572.063 69.2382H577.506C578.094 69.2382 578.535 69.1156 578.829 68.8705C579.123 68.6253 579.344 68.2086 579.491 67.6203L589.566 30.1875C590.155 27.8342 590.449 26.0202 590.449 24.7454C590.449 24.01 590.326 23.4952 590.081 23.2011C589.885 22.9069 589.517 22.7598 588.978 22.7598C587.654 22.7598 586.257 23.961 584.786 26.3634C583.364 28.7167 582.139 31.4377 581.109 34.5265L579.638 34.0852C582.874 24.868 586.502 20.2594 590.522 20.2594C592.042 20.2594 593.121 20.9703 593.758 22.3921C594.396 23.7649 594.714 25.3828 594.714 27.2459C594.714 27.9323 594.69 28.4961 594.641 28.9373C594.641 29.3786 594.641 29.6482 594.641 29.7463L594.861 29.8934C595.891 27.6871 597.386 25.5299 599.347 23.4217C601.358 21.3135 603.49 20.2594 605.746 20.2594C608.344 20.2594 610.354 21.1909 611.776 23.054C613.247 24.868 613.982 27.2949 613.982 30.3346C613.982 33.3253 613.541 36.2179 612.659 39.0125C611.776 41.7581 610.771 44.0134 609.643 45.7784C607.927 48.4749 605.917 50.6321 603.613 52.25C601.358 53.868 599.053 54.6769 596.7 54.6769C595.18 54.6769 593.807 54.1621 592.582 53.1325C591.356 52.0539 590.473 50.4115 589.934 48.2052L589.64 48.0582L584.492 67.6203L584.345 68.3557C584.345 68.6989 584.443 68.9195 584.639 69.0175C584.835 69.1646 585.154 69.2382 585.595 69.2382H594.567L593.979 71.2973H571.475L572.063 69.2382ZM596.7 52.9119C598.22 52.9119 599.666 52.0784 601.039 50.4115C602.412 48.7445 603.588 46.8325 604.569 44.6752C605.795 41.9297 606.775 39.0125 607.511 35.9238C608.295 32.835 608.687 29.9914 608.687 27.3929C608.687 25.9221 608.418 24.6719 607.878 23.6423C607.388 22.5637 606.53 22.0244 605.304 22.0244C603.49 22.0244 601.75 22.9559 600.083 24.819C598.416 26.633 596.872 29.0844 595.45 32.1732C594.469 34.3794 593.611 36.8308 592.876 39.5273C592.14 42.2239 591.773 44.4301 591.773 46.1461C591.773 48.3033 592.214 49.9702 593.096 51.1469C593.979 52.3236 595.18 52.9119 596.7 52.9119Z" fill="white"/>
<path d="M563.381 54.6775C558.625 54.6775 556.247 52.4467 556.247 47.9852C556.247 47.0536 556.272 46.2447 556.321 45.5583C556.419 44.8719 556.591 44.0384 556.836 43.0579L558.454 36.4391C558.797 35.0664 558.968 34.0123 558.968 33.2768C558.968 31.3648 558.429 29.9184 557.351 28.9379C556.272 27.9573 554.899 27.467 553.232 27.467H545.069L539.112 49.456C539.014 49.8482 538.965 50.1179 538.965 50.265C538.965 51.0494 539.455 51.4416 540.436 51.4416H547.79L547.202 53.795H523.668L524.257 51.4416H529.846C531.17 51.4416 532.003 50.7798 532.346 49.456L544.187 5.77224C544.285 5.38002 544.334 5.08585 544.334 4.88974C544.334 4.15433 543.819 3.78662 542.789 3.78662H537.2L537.788 1.43328H561.322L560.733 3.78662H553.379C552.056 3.78662 551.222 4.44849 550.879 5.77224L545.731 25.1137H552.203C554.115 25.1137 555.953 24.5499 557.718 23.4223C559.483 22.2456 561.003 20.6032 562.278 18.495C563.553 16.3868 564.435 13.9844 564.925 11.2879C565.612 7.65981 566.739 4.96328 568.308 3.19828C569.926 1.43328 571.789 0.550781 573.897 0.550781C576.3 0.550781 578.04 1.21266 579.119 2.53641C580.197 3.86016 580.737 5.40453 580.737 7.16953C580.737 9.42481 580.173 11.2879 579.045 12.7587C577.918 14.2295 576.422 14.965 574.559 14.965C573.628 14.965 572.819 14.6708 572.132 14.0825C571.495 13.4451 571.176 12.6361 571.176 11.6556C571.176 10.3318 571.421 9.32676 571.912 8.64037C572.402 7.90495 573.137 7.31662 574.118 6.87537C575.393 6.28703 576.03 5.55162 576.03 4.66912C576.03 3.88467 575.785 3.36988 575.295 3.12474C574.853 2.8796 574.363 2.75703 573.824 2.75703C572.059 2.75703 570.613 3.63953 569.485 5.40453C568.406 7.12051 567.426 10.1112 566.543 14.3766C566.053 16.5829 564.925 18.8627 563.16 21.216C561.444 23.5693 559.41 25.0892 557.056 25.7756L556.836 26.511C557.767 26.511 558.87 26.7807 560.145 27.32C561.469 27.8102 562.646 28.7418 563.675 30.1145C564.754 31.4873 565.293 33.3504 565.293 35.7037C565.293 37.7629 564.852 40.4594 563.969 43.7933C563.43 46.1466 563.16 47.7155 563.16 48.5C563.16 49.1864 563.332 49.7502 563.675 50.1914C564.018 50.6327 564.533 50.8533 565.219 50.8533C568.21 50.8533 570.49 47.8626 572.059 41.8812L573.824 42.396C573.137 45.3377 571.985 48.1323 570.367 50.7798C568.749 53.3782 566.421 54.6775 563.381 54.6775Z" fill="white"/>
<path d="M487.741 17.4655C485.486 17.4655 483.623 16.8281 482.152 15.5534C480.681 14.2297 479.946 12.5382 479.946 10.479C479.946 9.25334 480.338 8.22376 481.123 7.39028C481.907 6.55681 482.789 6.14008 483.77 6.14008C484.8 6.14008 485.584 6.38522 486.123 6.87549C486.712 7.36577 487.006 8.07667 487.006 9.0082C487.006 9.93973 486.736 10.6506 486.197 11.1409C485.707 11.6312 485.118 11.8763 484.432 11.8763C483.647 11.8763 483.255 12.195 483.255 12.8324C483.255 13.7639 483.721 14.4748 484.653 14.9651C485.584 15.4554 486.761 15.7005 488.183 15.7005C490.193 15.7005 492.154 15.0386 494.066 13.7149C495.978 12.3421 497.498 10.4055 498.625 7.90508L499.802 8.56695C498.723 11.1654 497.081 13.2981 494.875 14.9651C492.669 16.632 490.291 17.4655 487.741 17.4655ZM474.357 54.6776C472.886 54.6776 471.709 54.0893 470.827 52.9126C469.993 51.6869 469.576 49.9219 469.576 47.6176C469.576 46.539 469.724 45.2397 470.018 43.7199C470.312 42.151 470.655 40.9498 471.047 40.1163L475.754 29.1586C475.999 28.6193 476.244 27.9084 476.489 27.0259C476.784 26.1434 476.931 25.408 476.931 24.8197C476.931 24.1333 476.784 23.5695 476.489 23.1282C476.195 22.687 475.778 22.4663 475.239 22.4663C473.572 22.4663 471.979 23.7411 470.459 26.2905C468.939 28.8399 467.64 31.5855 466.561 34.5272L465.09 34.0859C466.414 30.1147 468.008 26.8298 469.871 24.2313C471.783 21.5838 473.842 20.2601 476.048 20.2601C477.372 20.2601 478.475 20.8484 479.358 22.0251C480.289 23.2017 480.755 24.9667 480.755 27.3201C480.755 28.3987 480.608 29.6979 480.314 31.2178C480.019 32.6886 479.676 33.8898 479.284 34.8213L474.577 45.779C474.332 46.3184 474.063 47.0293 473.768 47.9118C473.523 48.7943 473.401 49.5297 473.401 50.118C473.401 50.8044 473.523 51.3682 473.768 51.8095C474.063 52.2507 474.479 52.4713 475.019 52.4713C477.96 52.4713 481.073 49.7013 484.358 44.1611C486.319 40.8272 488.06 37.5179 489.58 34.233C491.149 30.9481 492.252 28.2026 492.889 25.9963L494.36 21.1426H499.214L493.036 43.9405C492.301 46.8822 491.933 48.9659 491.933 50.1916C491.933 50.8779 492.031 51.3927 492.227 51.7359C492.423 52.0301 492.791 52.1772 493.33 52.1772C494.703 52.1772 496.076 51.0495 497.449 48.7943C498.871 46.49 500.145 43.6954 501.273 40.4105L502.744 40.8518C499.508 50.069 495.904 54.6776 491.933 54.6776C489.09 54.6776 487.668 52.1772 487.668 47.1763C487.668 46.1958 487.888 44.7004 488.33 42.6903C488.82 40.6311 489.237 39.1603 489.58 38.2778L489.359 38.0572L488.33 39.8957C486.172 44.0631 483.966 47.5686 481.711 50.4122C479.505 53.2558 477.053 54.6776 474.357 54.6776Z" fill="white"/>
<path d="M445.958 54.6769C443.016 54.6769 440.638 53.4757 438.824 51.0734C437.01 48.622 436.103 45.6558 436.103 42.1748C436.103 39.2332 436.642 36.3405 437.721 33.4969C438.799 30.6043 440.417 28.0303 442.575 25.775C446.105 22.0979 449.782 20.2594 453.606 20.2594C455.567 20.2594 457.16 20.7497 458.386 21.7302C459.661 22.6618 460.298 24.2307 460.298 26.4369C460.298 30.2611 457.822 33.3253 452.87 35.6296C451.204 36.4141 449.537 36.9779 447.87 37.3211C446.203 37.6152 444.389 37.8359 442.428 37.983C442.182 39.0125 441.937 40.3608 441.692 42.0277C441.496 43.6457 441.398 45.1655 441.398 46.5873C441.398 48.7446 441.864 50.338 442.795 51.3675C443.776 52.3971 444.952 52.9119 446.325 52.9119C449.365 52.9119 451.841 51.6862 453.753 49.2348C455.665 46.7834 457.013 44.5036 457.798 42.3955L459.342 42.9102C458.165 46.2441 456.376 49.0387 453.974 51.294C451.571 53.5493 448.899 54.6769 445.958 54.6769ZM442.869 36.1444C446.448 35.8993 449.316 35.2864 451.473 34.3059C453.042 33.6195 454.317 32.5409 455.297 31.07C456.278 29.5992 456.768 27.9077 456.768 25.9957C456.768 24.5738 456.474 23.5688 455.886 22.9804C455.297 22.3431 454.562 22.0244 453.679 22.0244C451.669 22.0244 449.806 22.9559 448.09 24.819C446.374 26.633 445.124 28.6186 444.34 30.7759C444.094 31.5603 443.825 32.4918 443.531 33.5704C443.237 34.6491 443.016 35.507 442.869 36.1444Z" fill="white"/>
<path d="M414.789 54.6769C411.847 54.6769 409.469 53.4757 407.655 51.0734C405.841 48.622 404.934 45.6558 404.934 42.1748C404.934 39.2332 405.473 36.3405 406.552 33.4969C407.631 30.6043 409.249 28.0303 411.406 25.775C413.122 23.961 414.838 22.5882 416.554 21.6567C418.319 20.7252 420.28 20.2594 422.437 20.2594C424.3 20.2594 425.943 20.8477 427.364 22.0244C428.786 23.2011 429.497 25.0641 429.497 27.6136C429.497 29.0844 429.08 30.3101 428.247 31.2907C427.462 32.2712 426.482 32.7615 425.305 32.7615C424.374 32.7615 423.663 32.4918 423.173 31.9525C422.682 31.3642 422.437 30.7023 422.437 29.9669C422.437 28.5451 423.222 27.2704 424.79 26.1427C425.33 25.7015 425.599 25.0641 425.599 24.2307C425.599 23.7894 425.33 23.3236 424.79 22.8334C424.251 22.2941 423.369 22.0244 422.143 22.0244C418.319 22.0244 414.985 26.2898 412.141 34.8207C411.602 36.4386 411.136 38.4732 410.744 40.9246C410.401 43.327 410.229 45.2145 410.229 46.5873C410.229 48.7446 410.695 50.338 411.626 51.3675C412.607 52.3971 413.784 52.9119 415.156 52.9119C418.196 52.9119 420.672 51.6862 422.584 49.2348C424.496 46.7834 425.845 44.5036 426.629 42.3955L428.173 42.9102C426.997 46.2441 425.207 49.0387 422.805 51.294C420.402 53.5493 417.73 54.6769 414.789 54.6769Z" fill="white"/>
<path d="M387.737 54.6769C386.266 54.6769 385.016 54.2111 383.986 53.2796C382.956 52.3481 382.442 50.8527 382.442 48.7936C382.442 47.4208 382.785 45.8029 383.471 43.9398C383.52 43.7437 383.643 43.3025 383.839 42.6161C384.084 41.8807 384.207 41.1698 384.207 40.4834C384.207 39.4048 383.986 38.5958 383.545 38.0565C383.103 37.4682 382.196 37.174 380.824 37.174H376.264L371.704 53.7944H366.851L373.028 31.2907C373.077 31.0455 373.298 30.1875 373.69 28.7167C374.131 27.1968 374.352 25.9221 374.352 24.8925C374.352 23.4707 373.862 22.7598 372.881 22.7598C371.508 22.7598 370.111 23.912 368.689 26.2163C367.316 28.4716 366.066 31.2416 364.939 34.5265L363.468 34.0852C364.792 30.3591 366.311 27.1233 368.027 24.3777C369.743 21.6322 371.827 20.2594 374.278 20.2594C375.21 20.2594 376.019 20.6026 376.705 21.289C377.441 21.9263 377.931 22.6372 378.176 23.4217C378.47 24.4513 378.617 25.6525 378.617 27.0252C378.617 27.9077 378.299 29.6237 377.661 32.1732L376.779 35.409H381.486C382.76 35.409 383.937 34.4775 385.016 32.6144C386.094 30.7514 387.026 28.5206 387.81 25.9221C388.447 23.8139 389.33 22.3431 390.458 21.5096C391.585 20.6761 392.786 20.2594 394.061 20.2594C394.748 20.2594 395.409 20.431 396.047 20.7742C396.684 21.1174 397.15 21.4851 397.444 21.8773C397.934 22.5147 398.253 23.103 398.4 23.6423C398.547 24.1816 398.621 24.819 398.621 25.5544C398.621 26.8782 398.253 27.9813 397.518 28.8638C396.831 29.6973 395.973 30.114 394.944 30.114C394.257 30.114 393.644 29.8934 393.105 29.4521C392.566 29.0109 392.296 28.398 392.296 27.6136C392.296 26.9272 392.517 26.2653 392.958 25.6279C393.301 25.0886 393.473 24.6719 393.473 24.3777C393.473 23.9855 393.375 23.6913 393.179 23.4952C392.983 23.2991 392.615 23.2011 392.076 23.2011C391.389 23.2011 390.85 23.4462 390.458 23.9365C390.065 24.4268 389.722 25.1377 389.428 26.0692C388.791 28.1774 387.982 30.2611 387.001 32.3202C386.021 34.3794 385.065 35.5806 384.133 35.9238L384.059 36.2915C385.334 36.3895 386.462 36.9534 387.442 37.983C388.423 38.9635 388.913 40.2627 388.913 41.8807C388.913 43.1554 388.619 44.7733 388.031 46.7344C387.639 48.3033 387.442 49.3574 387.442 49.8967C387.442 50.485 387.565 50.9998 387.81 51.4411C388.055 51.8823 388.447 52.103 388.987 52.103C389.281 52.103 389.551 52.0539 389.796 51.9559C390.041 51.8578 390.384 51.6372 390.825 51.294C392.1 50.3625 393.154 49.0387 393.988 47.3227C394.821 45.5577 395.777 43.2534 396.856 40.4098L398.327 40.8511C395.14 50.0683 391.61 54.6769 387.737 54.6769Z" fill="white"/>
<path d="M344.335 54.6769C341.393 54.6769 339.015 53.4757 337.201 51.0734C335.387 48.622 334.48 45.6558 334.48 42.1748C334.48 39.2332 335.02 36.3405 336.098 33.4969C337.177 30.6043 338.795 28.0303 340.952 25.775C344.482 22.0979 348.159 20.2594 351.983 20.2594C353.944 20.2594 355.538 20.7497 356.764 21.7302C358.038 22.6618 358.676 24.2307 358.676 26.4369C358.676 30.2611 356.2 33.3253 351.248 35.6296C349.581 36.4141 347.914 36.9779 346.247 37.3211C344.58 37.6152 342.766 37.8359 340.805 37.983C340.56 39.0125 340.315 40.3608 340.07 42.0277C339.873 43.6457 339.775 45.1655 339.775 46.5873C339.775 48.7446 340.241 50.338 341.173 51.3675C342.153 52.3971 343.33 52.9119 344.703 52.9119C347.742 52.9119 350.218 51.6862 352.13 49.2348C354.042 46.7834 355.391 44.5036 356.175 42.3955L357.72 42.9102C356.543 46.2441 354.753 49.0387 352.351 51.294C349.949 53.5493 347.277 54.6769 344.335 54.6769ZM341.246 36.1444C344.825 35.8993 347.693 35.2864 349.851 34.3059C351.419 33.6195 352.694 32.5409 353.675 31.07C354.655 29.5992 355.146 27.9077 355.146 25.9957C355.146 24.5738 354.851 23.5688 354.263 22.9804C353.675 22.3431 352.939 22.0244 352.057 22.0244C350.047 22.0244 348.184 22.9559 346.468 24.819C344.752 26.633 343.501 28.6186 342.717 30.7759C342.472 31.5603 342.202 32.4918 341.908 33.5704C341.614 34.6491 341.393 35.507 341.246 36.1444Z" fill="white"/>
<path d="M299.068 54.6773C297.156 54.6773 295.685 54.0644 294.656 52.8387C293.675 51.613 293.185 50.3138 293.185 48.941C293.185 47.3721 293.552 46.0484 294.288 44.9698C295.072 43.8911 296.151 43.3518 297.524 43.3518C298.504 43.3518 299.191 43.6215 299.583 44.1608C300.024 44.7001 300.245 45.3375 300.245 46.0729C300.245 47.2005 299.583 48.2546 298.259 49.2352C297.475 49.7745 297.082 50.4118 297.082 51.1473C297.082 51.8336 297.303 52.2994 297.744 52.5445C298.186 52.7897 298.651 52.9123 299.142 52.9123C300.661 52.9123 301.887 52.0543 302.819 50.3383C303.799 48.6223 304.78 46.2445 305.76 43.2048L311.57 25.187C311.766 24.6477 311.864 24.182 311.864 23.7897C311.864 23.2014 311.448 22.9072 310.614 22.9072H306.863L307.378 21.1422H325.543L319.292 43.646C318.508 46.7838 318.115 48.9655 318.115 50.1912C318.115 50.8776 318.213 51.3924 318.41 51.7356C318.606 52.0298 318.973 52.1768 319.513 52.1768C320.885 52.1768 322.258 51.0492 323.631 48.7939C325.053 46.4896 326.328 43.695 327.455 40.4102L328.926 40.8514C327.602 44.5775 326.082 47.8134 324.366 50.5589C322.65 53.3045 320.567 54.6773 318.115 54.6773C315.272 54.6773 313.85 52.1768 313.85 47.176C313.85 46.1954 314.095 44.7246 314.585 42.7635L319.218 25.7018C319.415 25.0154 319.513 24.5006 319.513 24.1575C319.513 23.7652 319.39 23.4711 319.145 23.275C318.9 23.0298 318.459 22.9072 317.821 22.9072C316.399 22.9072 315.419 23.0788 314.88 23.422C314.389 23.7652 313.972 24.5006 313.629 25.6283L307.599 44.2343C306.52 47.5192 305.368 50.0932 304.142 51.9562C302.966 53.7702 301.274 54.6773 299.068 54.6773Z" fill="white"/>
<path d="M236.297 51.4415H239.018C241.029 51.4415 242.818 50.9267 244.387 49.8971C246.005 48.8676 247.255 47.6174 248.138 46.1465L278.363 1.43317H280.128V48.2792C280.226 49.5049 280.569 50.3384 281.158 50.7796C281.746 51.2209 282.58 51.4415 283.658 51.4415H287.777L287.188 53.7949H265.42L266.008 51.4415H270.568C271.597 51.4415 272.357 51.2209 272.848 50.7796C273.387 50.3384 273.657 49.4314 273.657 48.0586V35.8507H258.286L253.285 43.2048C251.619 45.6072 250.785 47.5193 250.785 48.9411C250.785 50.608 251.766 51.4415 253.727 51.4415H257.771L257.183 53.7949H235.709L236.297 51.4415ZM259.904 33.4973H273.657V13.1998L259.904 33.4973Z" fill="white"/>
<path d="M146.39 225.316C145.444 225.316 144.656 225.019 144.026 224.423C143.431 223.793 143.133 223.005 143.133 222.059C143.133 221.114 143.431 220.343 144.026 219.748C144.656 219.118 145.444 218.803 146.39 218.803C147.335 218.803 148.106 219.118 148.701 219.748C149.331 220.343 149.647 221.114 149.647 222.059C149.647 223.005 149.331 223.793 148.701 224.423C148.106 225.019 147.335 225.316 146.39 225.316ZM146.39 244.017C145.444 244.017 144.656 243.719 144.026 243.124C143.431 242.494 143.133 241.706 143.133 240.76C143.133 239.815 143.431 239.044 144.026 238.449C144.656 237.818 145.444 237.503 146.39 237.503C147.335 237.503 148.106 237.818 148.701 238.449C149.331 239.044 149.647 239.815 149.647 240.76C149.647 241.706 149.331 242.494 148.701 243.124C148.106 243.719 147.335 244.017 146.39 244.017Z" fill="white"/>
<path d="M122.323 244.017C120.467 244.017 118.856 243.562 117.491 242.651C116.16 241.741 115.495 240.13 115.495 237.818C115.495 236.032 115.95 234.632 116.86 233.616C117.771 232.6 118.821 231.883 120.012 231.462C121.238 231.007 122.709 230.622 124.425 230.307L129.257 229.414V224.949C129.257 221.692 127.629 220.063 124.372 220.063C123.181 220.063 122.096 220.379 121.115 221.009C120.135 221.604 119.644 222.287 119.644 223.058C119.644 223.408 119.697 223.67 119.802 223.845C119.872 223.951 119.977 224.056 120.117 224.161C120.292 224.266 120.45 224.336 120.59 224.371C121.22 224.546 121.693 224.791 122.008 225.106C122.358 225.421 122.534 225.859 122.534 226.419C122.534 227.155 122.306 227.68 121.851 227.995C121.43 228.311 120.888 228.468 120.222 228.468C119.452 228.468 118.751 228.17 118.121 227.575C117.491 226.98 117.176 226.122 117.176 225.001C117.176 223.705 117.526 222.585 118.226 221.639C118.962 220.694 119.89 219.993 121.01 219.538C122.166 219.048 123.339 218.803 124.53 218.803C126.841 218.803 128.837 219.415 130.518 220.641C132.199 221.832 133.04 223.705 133.04 226.262V239.184C133.04 240.935 133.582 241.811 134.668 241.811C135.543 241.811 136.174 241.303 136.559 240.287C136.944 239.272 137.137 238.029 137.137 236.558H138.082C138.082 238.659 137.767 240.427 137.137 241.863C136.542 243.299 135.456 244.017 133.88 244.017C132.374 244.017 131.236 243.579 130.466 242.704C129.73 241.793 129.327 240.55 129.257 238.974L128.995 238.869C128.469 240.095 127.611 241.268 126.421 242.388C125.265 243.474 123.899 244.017 122.323 244.017ZM123.164 242.126C124.74 242.126 125.966 241.513 126.841 240.287C127.752 239.027 128.557 237.433 129.257 235.507V230.517L124.687 231.515C123.006 231.865 121.781 232.565 121.01 233.616C120.275 234.632 119.907 236.085 119.907 237.976C119.907 239.587 120.24 240.69 120.905 241.285C121.571 241.846 122.323 242.126 123.164 242.126Z" fill="white"/>
<path d="M88.2721 242.337H90.0581C90.8635 242.337 91.4414 242.196 91.7916 241.916C92.1768 241.601 92.492 241.111 92.7371 240.445C93.7176 237.539 94.418 234.702 94.8383 231.936C95.2935 229.169 95.5212 226.122 95.5212 222.795C95.5212 221.395 95.1359 220.694 94.3655 220.694H92.1593V219.434H111.07V220.694H108.864C108.443 220.694 108.146 220.782 107.971 220.957C107.796 221.132 107.708 221.43 107.708 221.85V240.445C107.743 241.111 107.883 241.601 108.128 241.916C108.373 242.196 108.794 242.337 109.389 242.337H112.226L112.541 251.582H111.49C111.49 251.337 111.35 250.636 111.07 249.481C110.825 248.36 110.44 247.274 109.914 246.224C108.934 244.333 107.41 243.387 105.344 243.387H95.2585C93.9978 243.387 93.0172 243.632 92.3169 244.123C91.6165 244.613 91.0386 245.313 90.5834 246.224C90.0581 247.274 89.6553 248.36 89.3752 249.481C89.13 250.636 89.0075 251.337 89.0075 251.582H87.9569L88.2721 242.337ZM102.77 242.126C103.191 242.126 103.488 242.039 103.663 241.864C103.838 241.689 103.926 241.391 103.926 240.971V221.85C103.926 221.43 103.838 221.132 103.663 220.957C103.488 220.782 103.191 220.694 102.77 220.694H100.196C98.0601 220.694 96.992 222.305 96.992 225.527C96.992 227.173 96.8169 229.152 96.4667 231.463C96.1165 233.774 95.7663 235.56 95.4161 236.821C94.7857 239.097 94.4706 240.551 94.4706 241.181C94.4706 241.496 94.5756 241.741 94.7858 241.916C95.0309 242.056 95.3111 242.126 95.6262 242.126H102.77Z" fill="white"/>
<path d="M68.444 242.126H70.6503C71.0705 242.126 71.3682 242.039 71.5433 241.864C71.7184 241.689 71.8059 241.391 71.8059 240.971V221.85C71.8059 221.43 71.7184 221.132 71.5433 220.957C71.3682 220.782 71.0705 220.694 70.6503 220.694H68.444V219.434H86.9345L87.2497 228.679H86.1991C86.1991 228.434 86.059 227.751 85.7789 226.63C85.5337 225.474 85.1485 224.371 84.6232 223.321C84.203 222.515 83.6076 221.885 82.8372 221.43C82.0668 220.939 81.1212 220.694 80.0006 220.694H76.7437C76.3235 220.694 76.0258 220.782 75.8507 220.957C75.6756 221.132 75.5881 221.43 75.5881 221.85V240.971C75.5881 241.391 75.6756 241.689 75.8507 241.864C76.0258 242.039 76.3235 242.126 76.7437 242.126H78.95V243.387H68.444V242.126Z" fill="white"/>
<path d="M53.4159 244.017C51.4899 244.017 49.7213 243.457 48.1104 242.336C46.4995 241.18 45.2213 239.639 44.2758 237.713C43.3652 235.787 42.91 233.686 42.91 231.41C42.91 229.133 43.3652 227.032 44.2758 225.106C45.2213 223.18 46.4995 221.657 48.1104 220.536C49.7213 219.38 51.4899 218.803 53.4159 218.803C55.342 218.803 57.1105 219.38 58.7215 220.536C60.3324 221.657 61.5931 223.18 62.5036 225.106C63.4491 227.032 63.9219 229.133 63.9219 231.41C63.9219 233.686 63.4491 235.787 62.5036 237.713C61.5931 239.639 60.3324 241.18 58.7215 242.336C57.1105 243.457 55.342 244.017 53.4159 244.017ZM53.4159 242.756C55.5171 242.756 57.023 241.776 57.9335 239.815C58.844 237.818 59.2993 235.017 59.2993 231.41C59.2993 227.803 58.844 225.019 57.9335 223.058C57.023 221.061 55.5171 220.063 53.4159 220.063C51.3148 220.063 49.8089 221.061 48.8984 223.058C47.9879 225.019 47.5326 227.803 47.5326 231.41C47.5326 235.017 47.9879 237.818 48.8984 239.815C49.8089 241.776 51.3148 242.756 53.4159 242.756Z" fill="white"/>
<path d="M32.5331 244.017C30.7471 244.017 29.3813 243.615 28.4358 242.809C27.4902 242.004 26.8599 240.988 26.5447 239.762C26.2295 238.502 26.0369 236.943 25.9669 235.087C25.7918 231.76 25.3891 229.186 24.7587 227.365C24.1634 225.509 22.9902 224.581 21.2392 224.581H15.4609V240.288C15.4609 241.233 15.9337 241.706 16.8792 241.706H20.6614V243.387H5.42773V241.706H9.20988C10.1554 241.706 10.6282 241.233 10.6282 240.288V209.085C10.6282 208.595 10.5056 208.245 10.2605 208.034C10.0504 207.789 9.70016 207.667 9.20988 207.667H5.42773V205.986H20.6614V207.667H16.8792C16.3889 207.667 16.0212 207.789 15.7761 208.034C15.566 208.245 15.4609 208.595 15.4609 209.085V222.9H19.9785C21.9396 222.9 23.3054 222.183 24.0758 220.747C24.8462 219.276 25.319 216.877 25.4941 213.55C25.5992 211.239 25.9494 209.523 26.5447 208.402C27.035 207.457 27.6829 206.721 28.4883 206.196C29.3288 205.636 30.1868 205.355 31.0623 205.355C32.6382 205.355 33.8989 205.741 34.8444 206.511C36.0351 207.597 36.6304 208.998 36.6304 210.714C36.6304 211.974 36.3503 213.042 35.79 213.918C35.4398 214.443 34.9845 214.863 34.4242 215.179C33.8989 215.494 33.3386 215.651 32.7432 215.651C31.7977 215.651 31.0623 215.389 30.537 214.863C29.9767 214.303 29.6965 213.638 29.6965 212.867C29.6965 212.202 29.8191 211.659 30.0642 211.239C30.3444 210.819 30.7471 210.433 31.2724 210.083C32.0428 209.488 32.428 208.963 32.428 208.507C32.428 208.122 32.2529 207.859 31.9027 207.719C31.5525 207.544 31.2023 207.457 30.8521 207.457C29.5214 207.457 28.5934 208.052 28.0681 209.243C27.5778 210.433 27.2451 212.394 27.07 215.126C26.9299 217.262 26.6323 219.048 26.177 220.484C25.7217 221.92 24.8462 222.935 23.5505 223.531V223.793C25.8268 224.844 27.5078 225.86 28.5934 226.84C29.679 227.821 30.4319 229.046 30.8521 230.517C31.2724 231.953 31.5701 234.054 31.7452 236.821C31.8502 238.432 32.0603 239.64 32.3755 240.445C32.7257 241.216 33.3561 241.601 34.2666 241.601C35.3172 241.601 36.1051 240.883 36.6304 239.447C37.1557 237.976 37.4184 236.488 37.4184 234.982H38.7316C38.7316 237.048 38.2939 239.08 37.4184 241.076C36.5429 243.037 34.9145 244.017 32.5331 244.017Z" fill="white"/>
<path d="M197.867 368.345C196.922 368.345 196.134 368.047 195.503 367.452C194.908 366.821 194.61 366.033 194.61 365.088C194.61 364.142 194.908 363.372 195.503 362.776C196.134 362.146 196.922 361.831 197.867 361.831C198.813 361.831 199.583 362.146 200.179 362.776C200.809 363.372 201.124 364.142 201.124 365.088C201.124 366.033 200.809 366.821 200.179 367.452C199.583 368.047 198.813 368.345 197.867 368.345ZM197.867 387.045C196.922 387.045 196.134 386.748 195.503 386.152C194.908 385.522 194.61 384.734 194.61 383.788C194.61 382.843 194.908 382.072 195.503 381.477C196.134 380.847 196.922 380.532 197.867 380.532C198.813 380.532 199.583 380.847 200.179 381.477C200.809 382.072 201.124 382.843 201.124 383.788C201.124 384.734 200.809 385.522 200.179 386.152C199.583 386.748 198.813 387.045 197.867 387.045Z" fill="white"/>
<path d="M177.481 387.045C175.555 387.045 173.786 386.485 172.175 385.364C170.564 384.209 169.286 382.668 168.341 380.742C167.43 378.816 166.975 376.714 166.975 374.438C166.975 372.162 167.43 370.061 168.341 368.135C169.286 366.208 170.564 364.685 172.175 363.564C173.786 362.409 175.555 361.831 177.481 361.831C179.407 361.831 181.175 362.409 182.786 363.564C184.397 364.685 185.658 366.208 186.568 368.135C187.514 370.061 187.987 372.162 187.987 374.438C187.987 376.714 187.514 378.816 186.568 380.742C185.658 382.668 184.397 384.209 182.786 385.364C181.175 386.485 179.407 387.045 177.481 387.045ZM177.481 385.785C179.582 385.785 181.088 384.804 181.998 382.843C182.909 380.847 183.364 378.045 183.364 374.438C183.364 370.831 182.909 368.047 181.998 366.086C181.088 364.09 179.582 363.092 177.481 363.092C175.38 363.092 173.874 364.09 172.963 366.086C172.053 368.047 171.597 370.831 171.597 374.438C171.597 378.045 172.053 380.847 172.963 382.843C173.874 384.804 175.38 385.785 177.481 385.785Z" fill="white"/>
<path d="M158.73 387.045C157.05 387.045 155.859 386.59 155.158 385.679C154.493 384.734 154.125 383.263 154.055 381.267C153.985 378.816 153.705 377.082 153.215 376.067C152.76 375.051 151.884 374.543 150.588 374.543H147.226V383.999C147.226 384.419 147.314 384.716 147.489 384.892C147.664 385.067 147.962 385.154 148.382 385.154H150.588V386.415H140.082V385.154H142.289C142.709 385.154 143.007 385.067 143.182 384.892C143.357 384.716 143.444 384.419 143.444 383.999V364.93C143.444 364.51 143.357 364.212 143.182 364.037C143.007 363.862 142.709 363.775 142.289 363.775H140.082V362.514H150.588V363.775H148.382C147.962 363.775 147.664 363.862 147.489 364.037C147.314 364.212 147.226 364.51 147.226 364.93V373.282H150.641C151.797 373.282 152.602 372.617 153.057 371.286C153.548 369.921 153.863 368.257 154.003 366.296C154.108 364.79 154.511 363.669 155.211 362.934C155.946 362.199 156.804 361.831 157.785 361.831C158.941 361.831 159.799 362.216 160.359 362.987C160.954 363.757 161.252 364.615 161.252 365.561C161.252 366.506 160.972 367.277 160.411 367.872C159.851 368.467 159.186 368.765 158.415 368.765C157.715 368.765 157.172 368.572 156.787 368.187C156.402 367.802 156.209 367.329 156.209 366.769C156.209 366.454 156.297 366.156 156.472 365.876C156.647 365.561 156.839 365.333 157.05 365.193C157.435 364.913 157.627 364.615 157.627 364.3C157.627 363.81 157.347 363.564 156.787 363.564C156.367 363.564 155.999 363.81 155.684 364.3C155.404 364.755 155.246 365.403 155.211 366.243C155.106 368.029 154.826 369.658 154.371 371.129C153.915 372.6 153.18 373.51 152.164 373.86V374.018C154.371 374.648 155.981 375.611 156.997 376.907C157.487 377.502 157.837 378.22 158.048 379.061C158.258 379.901 158.415 380.882 158.52 382.002C158.625 382.983 158.783 383.753 158.993 384.314C159.238 384.874 159.624 385.154 160.149 385.154C160.989 385.154 161.55 384.646 161.83 383.631C162.11 382.615 162.25 381.547 162.25 380.426H163.196C163.196 382.072 162.88 383.596 162.25 384.997C161.655 386.362 160.481 387.045 158.73 387.045Z" fill="white"/>
<path d="M118.331 385.154H120.537C120.958 385.154 121.255 385.067 121.43 384.892C121.606 384.717 121.693 384.419 121.693 383.999V364.878C121.693 364.458 121.606 364.16 121.43 363.985C121.255 363.81 120.958 363.722 120.537 363.722H118.331V362.461H128.837V363.722H126.631C126.211 363.722 125.913 363.81 125.738 363.985C125.563 364.16 125.475 364.458 125.475 364.878V373.388H131.569C133.04 373.388 134.353 373.685 135.508 374.281C136.664 374.841 137.575 375.629 138.24 376.644C138.905 377.625 139.238 378.711 139.238 379.901C139.238 381.057 138.87 382.143 138.135 383.158C137.434 384.139 136.489 384.927 135.298 385.522C134.143 386.117 132.899 386.415 131.569 386.415H118.331V385.154ZM130.098 385.154C131.569 385.154 132.689 384.664 133.46 383.683C134.23 382.703 134.615 381.442 134.615 379.901C134.615 378.36 134.213 377.1 133.407 376.119C132.637 375.139 131.534 374.648 130.098 374.648H125.475V383.999C125.475 384.419 125.563 384.717 125.738 384.892C125.913 385.067 126.211 385.154 126.631 385.154H130.098Z" fill="white"/>
<path d="M94.9611 387.045C93.3852 387.045 92.2471 386.59 91.5467 385.68C90.8463 384.769 90.4961 383.841 90.4961 382.896C90.4961 381.88 90.7412 381.057 91.2315 380.427C91.7568 379.796 92.4922 379.481 93.4378 379.481C94.1732 379.481 94.7335 379.726 95.1187 380.216C95.539 380.672 95.7491 381.232 95.7491 381.897C95.7491 382.318 95.644 382.72 95.4339 383.106C95.2238 383.491 94.9611 383.753 94.646 383.894C94.2257 384.069 94.0156 384.436 94.0156 384.997C94.0156 385.207 94.1031 385.399 94.2782 385.575C94.4884 385.715 94.6985 385.785 94.9086 385.785C96.3094 385.785 97.3775 385.067 98.1129 383.631C98.8483 382.195 99.3736 379.814 99.6888 376.487L100.162 370.866C100.372 368.275 100.477 366.384 100.477 365.193C100.477 364.668 100.389 364.3 100.214 364.09C100.039 363.845 99.6363 363.722 99.0059 363.722H97.0098V362.461H114.345V363.722H112.138C111.718 363.722 111.42 363.81 111.245 363.985C111.07 364.16 110.983 364.458 110.983 364.878V383.999C110.983 384.419 111.07 384.717 111.245 384.892C111.42 385.067 111.718 385.154 112.138 385.154H114.292V386.415H103.786V385.154H106.045C106.465 385.154 106.763 385.067 106.938 384.892C107.113 384.717 107.201 384.419 107.201 383.999V364.878C107.201 364.458 107.113 364.16 106.938 363.985C106.763 363.81 106.465 363.722 106.045 363.722H104.311C103.471 363.722 102.858 364.037 102.473 364.668C102.123 365.263 101.895 366.209 101.79 367.504L101.002 376.907C100.757 380.129 100.162 382.633 99.216 384.419C98.2705 386.17 96.8522 387.045 94.9611 387.045Z" fill="white"/>
<path d="M76.8329 387.045C74.9068 387.045 73.1383 386.485 71.5273 385.364C69.9164 384.209 68.6382 382.668 67.6927 380.742C66.7822 378.816 66.3269 376.714 66.3269 374.438C66.3269 372.162 66.7822 370.061 67.6927 368.135C68.6382 366.208 69.9164 364.685 71.5273 363.564C73.1383 362.409 74.9068 361.831 76.8329 361.831C78.7589 361.831 80.5274 362.409 82.1384 363.564C83.7493 364.685 85.01 366.208 85.9205 368.135C86.866 370.061 87.3388 372.162 87.3388 374.438C87.3388 376.714 86.866 378.816 85.9205 380.742C85.01 382.668 83.7493 384.209 82.1384 385.364C80.5274 386.485 78.7589 387.045 76.8329 387.045ZM76.8329 385.785C78.934 385.785 80.4399 384.804 81.3504 382.843C82.2609 380.847 82.7162 378.045 82.7162 374.438C82.7162 370.831 82.2609 368.047 81.3504 366.086C80.4399 364.09 78.934 363.092 76.8329 363.092C74.7317 363.092 73.2258 364.09 72.3153 366.086C71.4048 368.047 70.9495 370.831 70.9495 374.438C70.9495 378.045 71.4048 380.847 72.3153 382.843C73.2258 384.804 74.7317 385.785 76.8329 385.785Z" fill="white"/>
<path d="M58.0826 387.045C56.4016 387.045 55.2109 386.59 54.5105 385.679C53.8452 384.734 53.4775 383.263 53.4074 381.267C53.3374 378.816 53.0572 377.082 52.5669 376.067C52.1117 375.051 51.2362 374.543 49.9405 374.543H46.5786V383.999C46.5786 384.419 46.6661 384.716 46.8412 384.892C47.0163 385.067 47.314 385.154 47.7342 385.154H49.9405V386.415H39.4345V385.154H41.6408C42.061 385.154 42.3587 385.067 42.5338 384.892C42.7089 384.716 42.7964 384.419 42.7964 383.999V364.93C42.7964 364.51 42.7089 364.212 42.5338 364.037C42.3587 363.862 42.061 363.775 41.6408 363.775H39.4345V362.514H49.9405V363.775H47.7342C47.314 363.775 47.0163 363.862 46.8412 364.037C46.6661 364.212 46.5786 364.51 46.5786 364.93V373.282H49.993C51.1486 373.282 51.9541 372.617 52.4094 371.286C52.8996 369.921 53.2148 368.257 53.3549 366.296C53.46 364.79 53.8627 363.669 54.5631 362.934C55.2985 362.199 56.1565 361.831 57.137 361.831C58.2927 361.831 59.1507 362.216 59.711 362.987C60.3063 363.757 60.604 364.615 60.604 365.561C60.604 366.506 60.3238 367.277 59.7635 367.872C59.2032 368.467 58.5378 368.765 57.7674 368.765C57.067 368.765 56.5242 368.572 56.139 368.187C55.7538 367.802 55.5611 367.329 55.5611 366.769C55.5611 366.454 55.6487 366.156 55.8238 365.876C55.9989 365.561 56.1915 365.333 56.4016 365.193C56.7868 364.913 56.9794 364.615 56.9794 364.3C56.9794 363.81 56.6993 363.564 56.139 363.564C55.7187 363.564 55.351 363.81 55.0358 364.3C54.7557 364.755 54.5981 365.403 54.5631 366.243C54.458 368.029 54.1779 369.658 53.7226 371.129C53.2673 372.6 52.5319 373.51 51.5164 373.86V374.018C53.7226 374.648 55.3335 375.611 56.3491 376.907C56.8394 377.502 57.1896 378.22 57.3997 379.061C57.6098 379.901 57.7674 380.882 57.8725 382.002C57.9775 382.983 58.1351 383.753 58.3452 384.314C58.5904 384.874 58.9756 385.154 59.5009 385.154C60.3414 385.154 60.9017 384.646 61.1818 383.631C61.462 382.615 61.6021 381.547 61.6021 380.426H62.5476C62.5476 382.072 62.2324 383.596 61.6021 384.997C61.0067 386.362 59.8336 387.045 58.0826 387.045Z" fill="white"/>
<path d="M21.4731 387.361C18.2163 387.361 15.4147 386.415 13.0684 384.524C10.722 382.633 8.93602 380.164 7.71033 377.117C6.51965 374.036 5.92432 370.796 5.92432 367.399C5.92432 363.862 6.51965 360.623 7.71033 357.681C8.901 354.74 10.5995 352.411 12.8057 350.695C15.012 348.944 17.5859 348.068 20.5276 348.068C22.0685 348.068 23.5218 348.419 24.8876 349.119C26.2533 349.819 27.374 350.572 28.2495 351.378C29.09 352.148 29.6503 352.533 29.9304 352.533C30.2106 352.533 30.4032 352.446 30.5083 352.271C30.6483 352.096 30.7884 351.815 30.9285 351.43L31.9266 348.489H33.2398L33.4499 364.773H31.9791C31.2087 361.446 30.2106 358.662 28.9849 356.421C27.7592 354.144 26.4109 352.463 24.9401 351.378C23.5043 350.292 22.0685 349.749 20.6327 349.749C17.3058 349.749 14.9419 351.255 13.5411 354.267C12.1754 357.279 11.4925 361.656 11.4925 367.399C11.4925 373.318 12.2104 377.853 13.6462 381.005C15.082 384.121 17.691 385.68 21.4731 385.68C24.835 385.68 27.3915 384.436 29.1425 381.95C30.9285 379.429 31.9441 376.382 32.1892 372.81H34.0803C33.9752 374.876 33.5375 377.012 32.767 379.219C32.0316 381.425 30.7359 383.333 28.8798 384.944C27.0238 386.555 24.5549 387.361 21.4731 387.361Z" fill="white"/>
<path d="M508.727 226.662C507.06 226.662 505.467 226.196 503.947 225.265C502.476 224.284 501.25 222.813 500.27 220.852C499.338 218.891 498.872 216.513 498.872 213.719C498.872 210.287 499.681 206.904 501.299 203.57C502.966 200.236 505.173 197.515 507.918 195.407C510.664 193.299 513.581 192.245 516.67 192.245C518.337 192.245 519.783 192.784 521.009 193.863C522.234 194.941 522.994 196.584 523.288 198.79L523.95 198.716C524.441 197.54 524.931 195.701 525.421 193.201C525.96 190.651 526.23 188.494 526.23 186.729C526.23 183.15 525.838 180.233 525.053 177.978C524.269 175.722 522.651 174.595 520.2 174.595C518.435 174.595 516.719 175.109 515.052 176.139C513.385 177.169 512.036 178.811 511.007 181.066L509.095 180.331C510.075 178.321 511.522 176.58 513.434 175.109C515.395 173.59 517.748 172.83 520.494 172.83C524.318 172.83 527.014 174.325 528.583 177.316C530.152 180.257 530.937 183.42 530.937 186.803C530.937 190.529 530.373 194.794 529.245 199.599C528.167 204.354 526.72 208.669 524.906 212.542C522.896 216.758 520.494 220.166 517.699 222.764C514.905 225.363 511.914 226.662 508.727 226.662ZM509.021 224.897C510.982 224.897 512.625 224.113 513.949 222.544C515.272 220.975 516.498 218.867 517.626 216.219C518.655 213.817 519.489 211.218 520.126 208.424C520.763 205.629 521.082 203.08 521.082 200.775C521.082 198.765 520.69 197.147 519.905 195.922C519.121 194.647 517.944 194.01 516.375 194.01C514.414 194.01 512.747 194.819 511.375 196.436C510.002 198.005 508.752 200.089 507.624 202.688C506.594 205.09 505.761 207.688 505.124 210.483C504.486 213.278 504.168 215.827 504.168 218.131C504.168 220.141 504.584 221.784 505.418 223.059C506.251 224.284 507.452 224.897 509.021 224.897Z" fill="white"/>
<path d="M474.757 226.663C473.09 226.663 471.496 226.197 469.977 225.265C468.506 224.285 467.28 222.814 466.299 220.853C465.368 218.892 464.902 216.514 464.902 213.719C464.902 210.287 465.711 206.904 467.329 203.57C468.996 200.237 471.202 197.516 473.948 195.407C476.693 193.299 479.61 192.245 482.699 192.245C484.366 192.245 485.935 192.735 487.406 193.716C488.877 194.647 490.078 196.094 491.009 198.055C491.941 200.016 492.407 202.394 492.407 205.188C492.407 208.62 491.598 212.003 489.98 215.337C488.362 218.671 486.18 221.392 483.435 223.5C480.738 225.608 477.845 226.663 474.757 226.663ZM475.051 224.898C477.012 224.898 478.654 224.113 479.978 222.544C481.302 220.975 482.528 218.867 483.655 216.22C484.685 213.817 485.518 211.219 486.156 208.424C486.793 205.63 487.112 203.08 487.112 200.776C487.112 198.766 486.72 197.148 485.935 195.922C485.151 194.647 483.974 194.01 482.405 194.01C480.444 194.01 478.777 194.819 477.404 196.437C476.031 198.006 474.781 200.089 473.654 202.688C472.624 205.09 471.791 207.689 471.153 210.483C470.516 213.278 470.197 215.827 470.197 218.132C470.197 220.142 470.614 221.784 471.447 223.059C472.281 224.285 473.482 224.898 475.051 224.898Z" fill="white"/>
<path d="M442.992 226.663C440.296 226.663 438.114 226.001 436.447 224.677C434.829 223.353 434.02 221.466 434.02 219.014C434.02 216.269 435.148 214.062 437.403 212.395C439.707 210.679 442.526 209.16 445.86 207.836C448.017 206.953 449.758 205.875 451.082 204.6C452.454 203.325 453.141 201.56 453.141 199.305C453.141 197.932 452.773 196.829 452.038 195.996C451.351 195.162 450.224 194.745 448.655 194.745C446.449 194.745 444.389 195.652 442.477 197.466C440.565 199.231 439.045 201.266 437.918 203.57L436.447 203.129C437.722 200.335 439.487 197.834 441.742 195.628C444.046 193.373 446.669 192.245 449.611 192.245C452.405 192.245 454.563 192.907 456.083 194.231C457.651 195.554 458.436 197.172 458.436 199.084C458.436 201.585 457.382 203.644 455.274 205.262C453.165 206.831 450.297 208.375 446.669 209.895C444.316 210.925 442.502 212.101 441.227 213.425C439.952 214.749 439.315 216.734 439.315 219.382C439.315 220.902 439.756 222.078 440.639 222.912C441.521 223.745 442.698 224.162 444.169 224.162C446.669 224.162 448.9 223.231 450.861 221.368C452.822 219.455 454.391 217.151 455.568 214.455L457.039 214.896C455.519 218.279 453.607 221.098 451.302 223.353C448.998 225.559 446.228 226.663 442.992 226.663Z" fill="white"/>
<path d="M385.163 226.956C383.055 226.956 380.971 226.466 378.912 225.485C376.902 224.505 375.235 223.034 373.911 221.073C372.587 219.112 371.926 216.734 371.926 213.939C371.926 211.439 372.538 209.159 373.764 207.1C374.99 205.041 376.485 203.472 378.25 202.393C379.476 201.609 380.554 201.045 381.486 200.702C382.418 200.358 383.717 200.04 385.384 199.746C384.109 198.814 382.957 197.417 381.927 195.554C380.947 193.642 380.456 191.533 380.456 189.229C380.456 185.356 381.707 181.973 384.207 179.08C385.629 177.462 387.394 176.261 389.502 175.477C391.659 174.692 393.694 174.3 395.606 174.3C399.822 174.3 403.181 175.305 405.681 177.315C408.182 179.326 409.432 182.145 409.432 185.773C409.432 187.783 408.991 189.793 408.108 191.803C407.275 193.813 406.122 195.382 404.652 196.51C403.524 197.392 402.176 198.201 400.607 198.937C399.087 199.623 397.763 200.064 396.636 200.26C398.695 202.025 400.215 203.79 401.195 205.555C402.176 207.32 402.666 209.355 402.666 211.659C402.666 214.013 402.249 216.096 401.416 217.91C400.631 219.724 399.43 221.342 397.812 222.764C396.341 224.088 394.527 225.118 392.37 225.853C390.213 226.588 387.811 226.956 385.163 226.956ZM394.944 199.084C397.003 198.79 398.817 198.054 400.386 196.878C402.004 195.652 403.254 194.205 404.137 192.539C405.019 190.823 405.461 189.107 405.461 187.391C405.461 184.008 404.603 181.385 402.887 179.522C401.171 177.61 398.646 176.654 395.312 176.654C393.988 176.654 392.566 176.997 391.046 177.683C389.576 178.32 388.301 179.424 387.222 180.992C386.144 182.561 385.604 184.596 385.604 187.096C385.604 188.616 385.8 189.818 386.193 190.7C386.634 191.533 387.32 192.367 388.252 193.2L394.944 199.084ZM386.046 224.603C388.056 224.603 389.919 224.186 391.635 223.353C393.4 222.519 394.797 221.391 395.827 219.97C396.856 218.548 397.371 217.003 397.371 215.336C397.371 211.757 396.439 209.159 394.576 207.541L386.855 201.069C385.139 201.462 383.692 201.903 382.516 202.393C381.388 202.834 380.26 203.594 379.133 204.673C378.005 205.752 377.049 207.1 376.265 208.718C375.529 210.336 375.161 212.052 375.161 213.866C375.161 217.249 376.068 219.896 377.882 221.808C379.745 223.671 382.467 224.603 386.046 224.603Z" fill="white"/>
<path d="M341.032 226.956C337.11 226.956 334.217 225.167 332.354 221.588C330.491 218.008 329.56 213.13 329.56 206.953C329.56 201.952 330.589 196.927 332.648 191.877C334.757 186.778 337.674 182.586 341.4 179.301C345.126 175.967 349.269 174.3 353.828 174.3C357.751 174.3 360.643 176.09 362.506 179.669C364.369 183.248 365.301 188.126 365.301 194.304C365.301 199.304 364.247 204.354 362.139 209.453C360.079 214.503 357.187 218.695 353.461 222.029C349.735 225.314 345.592 226.956 341.032 226.956ZM340.885 224.603C344.121 224.603 346.768 223.181 348.828 220.337C350.936 217.445 352.848 213.424 354.564 208.276C355.986 204.011 357.138 199.917 358.02 195.995C358.952 192.073 359.418 188.763 359.418 186.067C359.418 179.791 357.604 176.654 353.975 176.654C350.838 176.654 348.19 178.124 346.033 181.066C343.876 183.959 341.964 187.93 340.297 192.98C337.061 202.687 335.443 210.115 335.443 215.263C335.443 221.489 337.257 224.603 340.885 224.603Z" fill="white"/>
<path d="M298.372 226.956C294.449 226.956 291.557 225.167 289.694 221.588C287.831 218.008 286.899 213.13 286.899 206.953C286.899 201.952 287.929 196.927 289.988 191.877C292.096 186.778 295.013 182.586 298.739 179.301C302.465 175.967 306.608 174.3 311.168 174.3C315.09 174.3 317.983 176.09 319.846 179.669C321.709 183.248 322.64 188.126 322.64 194.304C322.64 199.304 321.586 204.354 319.478 209.453C317.419 214.503 314.526 218.695 310.8 222.029C307.074 225.314 302.931 226.956 298.372 226.956ZM298.225 224.603C301.46 224.603 304.108 223.181 306.167 220.337C308.275 217.445 310.187 213.424 311.903 208.276C313.325 204.011 314.477 199.917 315.36 195.995C316.291 192.073 316.757 188.763 316.757 186.067C316.757 179.791 314.943 176.654 311.315 176.654C308.177 176.654 305.53 178.124 303.372 181.066C301.215 183.959 299.303 187.93 297.636 192.98C294.4 202.687 292.782 210.115 292.782 215.263C292.782 221.489 294.596 224.603 298.225 224.603Z" fill="white"/>
<path d="M261.375 227.03C259.365 227.03 257.673 226.515 256.3 225.485C254.977 224.456 253.677 223.058 252.403 221.293C251.422 219.97 250.54 218.989 249.755 218.352C249.02 217.714 248.211 217.396 247.328 217.396C246.299 217.396 245.539 217.616 245.048 218.058C244.607 218.499 244.387 219.357 244.387 220.631C244.387 221.269 244.558 221.71 244.901 221.955C245.343 222.347 245.661 222.715 245.857 223.058C246.054 223.353 246.152 223.696 246.152 224.088C246.152 224.676 245.98 225.216 245.637 225.706C245.294 226.147 244.73 226.368 243.945 226.368C243.112 226.368 242.45 226.147 241.96 225.706C241.518 225.216 241.298 224.603 241.298 223.867C241.298 220.73 242.18 217.837 243.945 215.189C245.71 212.493 248.309 210.262 251.741 208.497L261.742 202.614C264.831 200.8 267.552 198.373 269.906 195.333C272.308 192.293 273.509 189.205 273.509 186.067C273.509 183.468 272.847 181.262 271.523 179.448C270.2 177.585 267.993 176.654 264.905 176.654C263.091 176.654 261.277 177.168 259.463 178.198C257.698 179.227 256.227 180.502 255.05 182.022C253.873 183.493 253.285 184.841 253.285 186.067C253.285 187.685 253.702 188.494 254.535 188.494C254.83 188.494 255.222 188.347 255.712 188.053C256.398 187.709 256.987 187.538 257.477 187.538C258.556 187.538 259.365 187.856 259.904 188.494C260.443 189.131 260.713 189.94 260.713 190.921C260.713 192.195 260.247 193.298 259.316 194.23C258.384 195.162 257.183 195.627 255.712 195.627C254.388 195.627 253.163 195.039 252.035 193.862C250.956 192.637 250.417 191.043 250.417 189.082C250.417 186.287 251.152 183.763 252.623 181.507C254.143 179.252 256.055 177.487 258.36 176.212C260.713 174.938 263.115 174.3 265.567 174.3C270.175 174.3 273.828 175.526 276.524 177.977C279.221 180.38 280.569 183.517 280.569 187.391C280.569 190.381 279.638 193.029 277.775 195.333C275.911 197.637 273.779 199.5 271.376 200.922C269.023 202.344 266.327 203.766 263.287 205.188L254.83 209.085C252.427 210.164 250.589 211.292 249.314 212.468C248.088 213.596 247.475 214.528 247.475 215.263C248.848 215.263 250.834 215.827 253.432 216.954C255.295 217.69 256.987 218.278 258.507 218.719C260.026 219.161 261.571 219.381 263.14 219.381C265.052 219.381 266.768 218.965 268.288 218.131C269.857 217.298 270.984 216.047 271.671 214.38L273.068 210.998H274.465C273.681 215.165 272.21 218.891 270.053 222.176C267.895 225.412 265.003 227.03 261.375 227.03Z" fill="white"/>
<path d="M783.504 377.842C781.837 377.842 780.538 377.328 779.606 376.298C778.675 375.219 778.209 373.871 778.209 372.253C778.209 371.027 778.528 369.973 779.165 369.091C779.852 368.208 780.759 367.767 781.886 367.767C782.867 367.767 783.578 368.037 784.019 368.576C784.509 369.115 784.754 369.753 784.754 370.488C784.754 371.027 784.607 371.542 784.313 372.033C784.019 372.523 783.676 372.866 783.284 373.062C782.499 373.503 782.107 373.969 782.107 374.459C782.107 375.538 782.671 376.077 783.798 376.077C785.073 376.077 786.103 375.612 786.887 374.68C787.671 373.699 788.407 372.351 789.093 370.635L790.711 366.517C791.545 364.311 792.648 362.938 794.021 362.399L794.094 362.031C793.114 361.884 792.084 361.492 791.005 360.854C789.927 360.217 789.02 359.334 788.284 358.207C787.549 357.03 787.181 355.682 787.181 354.162C787.181 352.25 787.696 350.485 788.726 348.867C789.755 347.2 791.201 345.876 793.065 344.896C794.977 343.915 797.158 343.425 799.61 343.425C802.6 343.425 804.733 344.65 806.008 347.102L806.376 347.175L807.185 344.307H812.112L805.934 366.811C805.15 369.949 804.758 372.131 804.758 373.356C804.758 374.043 804.856 374.557 805.052 374.901C805.248 375.195 805.616 375.342 806.155 375.342C807.528 375.342 808.9 374.214 810.273 371.959C811.695 369.655 812.97 366.86 814.097 363.575L815.568 364.016C814.245 367.743 812.725 370.978 811.009 373.724C809.293 376.47 807.209 377.842 804.758 377.842C801.914 377.842 800.492 375.342 800.492 370.341C800.492 369.361 800.737 367.89 801.228 365.929L802.331 361.957L802.184 361.81C801.056 362.399 799.438 362.693 797.33 362.693C796.398 362.693 795.516 363.06 794.682 363.796C793.849 364.482 793.187 365.512 792.697 366.885L791.152 371.224C789.486 375.636 786.936 377.842 783.504 377.842ZM798.36 360.781C801.203 360.781 802.895 359.874 803.434 358.06L804.684 353.5C805.076 352.176 805.272 351.22 805.272 350.632C805.272 349.161 804.684 347.886 803.507 346.808C802.331 345.729 800.933 345.19 799.316 345.19C797.354 345.19 795.712 346.097 794.388 347.911C793.114 349.676 792.476 351.76 792.476 354.162C792.476 356.074 792.991 357.667 794.021 358.942C795.099 360.168 796.545 360.781 798.36 360.781Z" fill="white"/>
<path d="M747.303 377.842C745.832 377.842 744.655 377.254 743.773 376.077C742.939 374.852 742.523 373.087 742.523 370.782C742.523 369.704 742.67 368.404 742.964 366.885C743.258 365.316 743.601 364.115 743.994 363.281L748.7 352.323C748.945 351.784 749.19 351.073 749.436 350.191C749.73 349.308 749.877 348.573 749.877 347.984C749.877 347.298 749.73 346.734 749.436 346.293C749.141 345.852 748.725 345.631 748.185 345.631C746.518 345.631 744.925 346.906 743.405 349.455C741.885 352.005 740.586 354.75 739.507 357.692L738.037 357.251C739.36 353.279 740.954 349.995 742.817 347.396C744.729 344.749 746.788 343.425 748.994 343.425C750.318 343.425 751.421 344.013 752.304 345.19C753.235 346.366 753.701 348.131 753.701 350.485C753.701 351.563 753.554 352.863 753.26 354.383C752.966 355.853 752.622 357.055 752.23 357.986L747.523 368.944C747.278 369.483 747.009 370.194 746.715 371.076C746.469 371.959 746.347 372.694 746.347 373.283C746.347 373.969 746.469 374.533 746.715 374.974C747.009 375.415 747.425 375.636 747.965 375.636C750.906 375.636 754.02 372.866 757.305 367.326C759.266 363.992 761.006 360.683 762.526 357.398C764.095 354.113 765.198 351.367 765.835 349.161L767.306 344.307H772.16L765.982 367.105C765.247 370.047 764.879 372.131 764.879 373.356C764.879 374.043 764.977 374.557 765.174 374.901C765.37 375.195 765.737 375.342 766.277 375.342C767.649 375.342 769.022 374.214 770.395 371.959C771.817 369.655 773.091 366.86 774.219 363.575L775.69 364.016C772.454 373.234 768.851 377.842 764.879 377.842C762.036 377.842 760.614 375.342 760.614 370.341C760.614 369.361 760.835 367.865 761.276 365.855C761.766 363.796 762.183 362.325 762.526 361.443L762.305 361.222L761.276 363.06C759.119 367.228 756.912 370.733 754.657 373.577C752.451 376.421 749.999 377.842 747.303 377.842Z" fill="white"/>
<path d="M722.934 377.842C720.09 377.842 718.668 375.342 718.668 370.341C718.668 369.361 718.913 367.89 719.404 365.929L720.727 361.075H709.034L704.622 376.96H699.768L705.872 354.456C706.656 351.318 707.049 349.137 707.049 347.911C707.049 347.224 706.951 346.734 706.755 346.44C706.558 346.097 706.191 345.925 705.651 345.925C704.279 345.925 702.881 347.077 701.459 349.382C700.087 351.637 698.837 354.407 697.709 357.692L696.238 357.251C697.562 353.525 699.082 350.289 700.798 347.543C702.514 344.798 704.597 343.425 707.049 343.425C709.892 343.425 711.314 345.925 711.314 350.926C711.314 351.907 711.069 353.377 710.579 355.339L709.476 359.31H721.169L725.361 344.307H730.214L724.11 366.811C723.326 369.949 722.934 372.131 722.934 373.356C722.934 374.043 723.032 374.557 723.228 374.901C723.424 375.195 723.792 375.342 724.331 375.342C725.704 375.342 727.077 374.214 728.449 371.959C729.871 369.655 731.146 366.86 732.273 363.575L733.744 364.016C732.421 367.743 730.901 370.978 729.185 373.724C727.469 376.47 725.385 377.842 722.934 377.842Z" fill="white"/>
<path d="M665.487 377.842C662.889 377.842 660.854 376.935 659.384 375.121C657.962 373.258 657.251 370.807 657.251 367.767C657.251 364.776 657.692 361.908 658.575 359.163C659.457 356.368 660.462 354.088 661.59 352.323C663.306 349.627 665.291 347.47 667.547 345.852C669.851 344.234 672.18 343.425 674.533 343.425C676.053 343.425 677.426 343.964 678.651 345.043C679.877 346.072 680.76 347.69 681.299 349.896L681.593 350.044L683.211 344.307H688.065L681.814 367.473C681.127 370.218 680.784 372.18 680.784 373.356C680.784 374.043 680.882 374.557 681.078 374.901C681.274 375.195 681.618 375.342 682.108 375.342C683.432 375.342 684.804 374.263 686.226 372.106C687.648 369.9 688.947 367.056 690.124 363.575L691.595 364.016C690.32 367.792 688.751 371.052 686.888 373.798C685.074 376.494 683.039 377.842 680.784 377.842C677.941 377.842 676.519 375.342 676.519 370.341C676.519 369.704 676.519 369.238 676.519 368.944C676.568 368.601 676.592 368.404 676.592 368.355L676.372 368.208C675.342 370.415 673.822 372.572 671.812 374.68C669.851 376.788 667.743 377.842 665.487 377.842ZM665.929 376.077C667.743 376.077 669.483 375.17 671.15 373.356C672.817 371.493 674.362 369.017 675.783 365.929C676.764 363.722 677.622 361.271 678.357 358.574C679.093 355.878 679.46 353.672 679.46 351.956C679.46 349.798 679.019 348.131 678.137 346.955C677.254 345.778 676.053 345.19 674.533 345.19C673.013 345.19 671.567 346.023 670.194 347.69C668.821 349.357 667.645 351.269 666.664 353.426C665.438 356.172 664.433 359.089 663.649 362.178C662.914 365.267 662.546 368.11 662.546 370.709C662.546 372.18 662.791 373.454 663.281 374.533C663.821 375.563 664.703 376.077 665.929 376.077Z" fill="white"/>
<path d="M641.465 377.842C640.141 377.842 639.013 377.254 638.082 376.077C637.199 374.901 636.758 373.136 636.758 370.782C636.758 369.704 636.905 368.429 637.199 366.958C637.494 365.438 637.837 364.213 638.229 363.281L642.936 352.323C643.181 351.784 643.426 351.073 643.671 350.191C643.965 349.308 644.112 348.573 644.112 347.984C644.112 347.298 643.965 346.734 643.671 346.293C643.426 345.852 643.034 345.631 642.494 345.631C639.553 345.631 636.439 348.401 633.155 353.941C631.193 357.275 629.428 360.585 627.86 363.869C626.34 367.154 625.261 369.9 624.624 372.106L623.153 376.96H618.299L624.403 354.235C624.501 353.892 624.722 353.108 625.065 351.882C625.457 350.607 625.653 349.48 625.653 348.499C625.653 346.587 624.869 345.631 623.3 345.631C622.025 345.631 620.285 347.273 618.078 350.558C615.872 353.843 613.715 357.643 611.607 361.957C609.548 366.272 608.15 369.655 607.415 372.106L605.944 376.96H601.09L607.268 354.235C608.003 351.294 608.371 349.21 608.371 347.984C608.371 347.298 608.273 346.783 608.077 346.44C607.881 346.097 607.513 345.925 606.974 345.925C604.473 345.925 601.826 349.847 599.031 357.692L597.56 357.251C600.796 348.033 604.375 343.425 608.297 343.425C611.19 343.425 612.636 345.95 612.636 351C612.636 351.833 612.416 353.279 611.975 355.339C611.533 357.398 611.092 358.893 610.651 359.825L610.945 360.045L611.827 358.427C614.034 354.211 616.166 350.656 618.226 347.764C620.334 344.871 622.344 343.425 624.256 343.425C628.031 343.425 629.919 345.754 629.919 350.411C629.919 351.441 629.674 352.936 629.183 354.897C628.742 356.858 628.325 358.501 627.933 359.825L628.154 360.045L629.183 358.207C631.341 354.039 633.522 350.534 635.729 347.69C637.984 344.847 640.46 343.425 643.156 343.425C644.627 343.425 645.779 344.038 646.613 345.263C647.495 346.44 647.936 348.181 647.936 350.485C647.936 351.563 647.789 352.887 647.495 354.456C647.201 355.976 646.858 357.153 646.466 357.986L641.759 368.944C641.514 369.483 641.244 370.194 640.95 371.076C640.705 371.959 640.582 372.694 640.582 373.283C640.582 373.969 640.729 374.533 641.024 374.974C641.318 375.415 641.734 375.636 642.274 375.636C643.941 375.636 645.534 374.361 647.054 371.812C648.574 369.262 649.873 366.517 650.952 363.575L652.422 364.016C651.099 367.988 649.481 371.297 647.569 373.945C645.706 376.543 643.671 377.842 641.465 377.842Z" fill="white"/>
<path d="M550.196 392.404H555.638C556.227 392.404 556.668 392.281 556.962 392.036C557.256 391.791 557.477 391.374 557.624 390.786L567.699 353.353C568.288 351 568.582 349.186 568.582 347.911C568.582 347.175 568.459 346.661 568.214 346.366C568.018 346.072 567.65 345.925 567.111 345.925C565.787 345.925 564.39 347.126 562.919 349.529C561.497 351.882 560.272 354.603 559.242 357.692L557.771 357.251C561.007 348.033 564.635 343.425 568.655 343.425C570.175 343.425 571.254 344.136 571.891 345.558C572.528 346.93 572.847 348.548 572.847 350.411C572.847 351.098 572.823 351.661 572.774 352.103C572.774 352.544 572.774 352.814 572.774 352.912L572.994 353.059C574.024 350.853 575.519 348.695 577.48 346.587C579.49 344.479 581.623 343.425 583.878 343.425C586.477 343.425 588.487 344.356 589.909 346.219C591.38 348.033 592.115 350.46 592.115 353.5C592.115 356.491 591.674 359.383 590.791 362.178C589.909 364.923 588.904 367.179 587.776 368.944C586.06 371.64 584.05 373.798 581.746 375.415C579.49 377.033 577.186 377.842 574.833 377.842C573.313 377.842 571.94 377.328 570.714 376.298C569.489 375.219 568.606 373.577 568.067 371.371L567.773 371.224L562.625 390.786L562.478 391.521C562.478 391.864 562.576 392.085 562.772 392.183C562.968 392.33 563.287 392.404 563.728 392.404H572.7L572.112 394.463H549.608L550.196 392.404ZM574.833 376.077C576.353 376.077 577.799 375.244 579.172 373.577C580.544 371.91 581.721 369.998 582.702 367.841C583.927 365.095 584.908 362.178 585.643 359.089C586.428 356 586.82 353.157 586.82 350.558C586.82 349.088 586.55 347.837 586.011 346.808C585.521 345.729 584.663 345.19 583.437 345.19C581.623 345.19 579.883 346.121 578.216 347.984C576.549 349.798 575.004 352.25 573.583 355.339C572.602 357.545 571.744 359.996 571.009 362.693C570.273 365.389 569.905 367.596 569.905 369.311C569.905 371.469 570.347 373.136 571.229 374.312C572.112 375.489 573.313 376.077 574.833 376.077Z" fill="white"/>
<path d="M538.712 377.842C535.771 377.842 533.393 376.641 531.579 374.239C529.765 371.787 528.858 368.821 528.858 365.34C528.858 362.399 529.397 359.506 530.476 356.662C531.554 353.77 533.172 351.196 535.329 348.94C538.859 345.263 542.537 343.425 546.361 343.425C548.322 343.425 549.915 343.915 551.141 344.896C552.416 345.827 553.053 347.396 553.053 349.602C553.053 353.426 550.577 356.491 545.625 358.795C543.958 359.579 542.291 360.143 540.624 360.486C538.958 360.781 537.144 361.001 535.182 361.148C534.937 362.178 534.692 363.526 534.447 365.193C534.251 366.811 534.153 368.331 534.153 369.753C534.153 371.91 534.619 373.503 535.55 374.533C536.531 375.563 537.707 376.077 539.08 376.077C542.12 376.077 544.596 374.852 546.508 372.4C548.42 369.949 549.768 367.669 550.553 365.561L552.097 366.076C550.92 369.41 549.131 372.204 546.728 374.459C544.326 376.715 541.654 377.842 538.712 377.842ZM535.624 359.31C539.203 359.065 542.071 358.452 544.228 357.471C545.797 356.785 547.072 355.706 548.052 354.235C549.033 352.765 549.523 351.073 549.523 349.161C549.523 347.739 549.229 346.734 548.641 346.146C548.052 345.508 547.317 345.19 546.434 345.19C544.424 345.19 542.561 346.121 540.845 347.984C539.129 349.798 537.879 351.784 537.094 353.941C536.849 354.726 536.58 355.657 536.286 356.736C535.991 357.814 535.771 358.672 535.624 359.31Z" fill="white"/>
<path d="M512.471 377.842C509.628 377.842 508.206 375.342 508.206 370.341C508.206 369.361 508.451 367.89 508.941 365.929L510.559 359.825L510.191 359.678C508.966 361.737 507.446 363.502 505.632 364.973C503.867 366.394 502.004 367.105 500.043 367.105C498.474 367.105 497.248 366.615 496.366 365.634C495.532 364.654 495.115 363.306 495.115 361.59C495.115 360.266 495.606 358.133 496.586 355.191C497.665 351.956 498.204 349.578 498.204 348.058C498.204 346.636 497.714 345.925 496.733 345.925C495.361 345.925 493.963 347.077 492.541 349.382C491.169 351.637 489.918 354.407 488.791 357.692L487.32 357.251C488.644 353.525 490.164 350.289 491.88 347.543C493.596 344.798 495.679 343.425 498.131 343.425C499.062 343.425 499.871 343.768 500.558 344.454C501.293 345.092 501.783 345.803 502.028 346.587C502.323 347.617 502.47 348.818 502.47 350.191C502.47 351.22 501.93 353.402 500.852 356.736C499.871 359.776 499.381 361.737 499.381 362.619C499.381 363.453 499.552 364.115 499.896 364.605C500.239 365.095 500.729 365.34 501.366 365.34C502.69 365.34 504.137 364.629 505.705 363.208C507.274 361.786 508.696 360.045 509.971 357.986C511.295 355.878 512.251 353.868 512.839 351.956L514.972 344.307H519.825L513.648 366.811C512.863 369.949 512.471 372.131 512.471 373.356C512.471 374.043 512.569 374.557 512.765 374.901C512.962 375.195 513.329 375.342 513.869 375.342C515.241 375.342 516.614 374.214 517.987 371.959C519.409 369.655 520.683 366.86 521.811 363.575L523.282 364.016C521.958 367.743 520.438 370.978 518.722 373.724C517.006 376.47 514.923 377.842 512.471 377.842Z" fill="white"/>
<path d="M456.569 377.842C453.971 377.842 451.936 376.935 450.465 375.121C449.043 373.258 448.332 370.807 448.332 367.767C448.332 364.776 448.774 361.908 449.656 359.163C450.539 356.368 451.544 354.088 452.671 352.323C454.387 349.627 456.373 347.47 458.628 345.852C460.932 344.234 463.261 343.425 465.615 343.425C467.134 343.425 468.507 343.964 469.733 345.043C470.959 346.072 471.841 347.69 472.38 349.896L472.675 350.044L474.293 344.307H479.146L472.895 367.473C472.209 370.218 471.866 372.18 471.866 373.356C471.866 374.043 471.964 374.557 472.16 374.901C472.356 375.195 472.699 375.342 473.189 375.342C474.513 375.342 475.886 374.263 477.308 372.106C478.73 369.9 480.029 367.056 481.205 363.575L482.676 364.016C481.402 367.792 479.833 371.052 477.97 373.798C476.156 376.494 474.121 377.842 471.866 377.842C469.022 377.842 467.6 375.342 467.6 370.341C467.6 369.704 467.6 369.238 467.6 368.944C467.649 368.601 467.674 368.404 467.674 368.355L467.453 368.208C466.424 370.415 464.904 372.572 462.894 374.68C460.932 376.788 458.824 377.842 456.569 377.842ZM457.01 376.077C458.824 376.077 460.565 375.17 462.232 373.356C463.899 371.493 465.443 369.017 466.865 365.929C467.845 363.722 468.703 361.271 469.439 358.574C470.174 355.878 470.542 353.672 470.542 351.956C470.542 349.798 470.101 348.131 469.218 346.955C468.336 345.778 467.134 345.19 465.615 345.19C464.095 345.19 462.648 346.023 461.276 347.69C459.903 349.357 458.726 351.269 457.746 353.426C456.52 356.172 455.515 359.089 454.73 362.178C453.995 365.267 453.627 368.11 453.627 370.709C453.627 372.18 453.872 373.454 454.363 374.533C454.902 375.563 455.785 376.077 457.01 376.077Z" fill="white"/>
<path d="M432.789 377.842C429.945 377.842 428.523 375.342 428.523 370.341C428.523 369.361 428.768 367.89 429.259 365.929L430.582 361.075H418.889L414.477 376.96H409.623L415.727 354.456C416.511 351.318 416.904 349.137 416.904 347.911C416.904 347.224 416.806 346.734 416.61 346.44C416.413 346.097 416.046 345.925 415.506 345.925C414.134 345.925 412.736 347.077 411.315 349.382C409.942 351.637 408.692 354.407 407.564 357.692L406.093 357.251C407.417 353.525 408.937 350.289 410.653 347.543C412.369 344.798 414.452 343.425 416.904 343.425C419.747 343.425 421.169 345.925 421.169 350.926C421.169 351.907 420.924 353.377 420.434 355.339L419.331 359.31H431.024L435.216 344.307H440.069L433.965 366.811C433.181 369.949 432.789 372.131 432.789 373.356C432.789 374.043 432.887 374.557 433.083 374.901C433.279 375.195 433.647 375.342 434.186 375.342C435.559 375.342 436.932 374.214 438.304 371.959C439.726 369.655 441.001 366.86 442.129 363.575L443.599 364.016C442.276 367.743 440.756 370.978 439.04 373.724C437.324 376.47 435.24 377.842 432.789 377.842Z" fill="white"/>
<path d="M352.662 377.842C351.191 377.842 350.015 377.254 349.132 376.077C348.299 374.852 347.882 373.087 347.882 370.782C347.882 369.704 348.029 368.404 348.323 366.885C348.617 365.316 348.961 364.115 349.353 363.281L354.06 352.323C354.305 351.784 354.55 351.073 354.795 350.191C355.089 349.308 355.236 348.573 355.236 347.984C355.236 347.298 355.089 346.734 354.795 346.293C354.501 345.852 354.084 345.631 353.545 345.631C351.878 345.631 350.284 346.906 348.765 349.455C347.245 352.005 345.945 354.75 344.867 357.692L343.396 357.251C344.72 353.279 346.313 349.995 348.176 347.396C350.088 344.749 352.147 343.425 354.354 343.425C355.677 343.425 356.781 344.013 357.663 345.19C358.595 346.366 359.06 348.131 359.06 350.485C359.06 351.563 358.913 352.863 358.619 354.383C358.325 355.853 357.982 357.055 357.59 357.986L352.883 368.944C352.638 369.483 352.368 370.194 352.074 371.076C351.829 371.959 351.706 372.694 351.706 373.283C351.706 373.969 351.829 374.533 352.074 374.974C352.368 375.415 352.785 375.636 353.324 375.636C356.266 375.636 359.379 372.866 362.664 367.326C364.625 363.992 366.365 360.683 367.885 357.398C369.454 354.113 370.557 351.367 371.195 349.161L372.666 344.307H377.519L371.342 367.105C370.606 370.047 370.239 372.131 370.239 373.356C370.239 374.043 370.337 374.557 370.533 374.901C370.729 375.195 371.097 375.342 371.636 375.342C373.009 375.342 374.382 374.214 375.754 371.959C377.176 369.655 378.451 366.86 379.578 363.575L381.049 364.016C377.813 373.234 374.21 377.842 370.239 377.842C367.395 377.842 365.973 375.342 365.973 370.341C365.973 369.361 366.194 367.865 366.635 365.855C367.125 363.796 367.542 362.325 367.885 361.443L367.665 361.222L366.635 363.06C364.478 367.228 362.272 370.733 360.016 373.577C357.81 376.421 355.359 377.842 352.662 377.842Z" fill="white"/>
<path d="M296.032 392.404H301.474C302.062 392.404 302.504 392.281 302.798 392.036C303.092 391.791 303.313 391.374 303.46 390.786L313.535 353.353C314.123 351 314.417 349.186 314.417 347.911C314.417 347.175 314.295 346.661 314.05 346.366C313.853 346.072 313.486 345.925 312.946 345.925C311.623 345.925 310.225 347.126 308.755 349.529C307.333 351.882 306.107 354.603 305.078 357.692L303.607 357.251C306.843 348.033 310.471 343.425 314.491 343.425C316.011 343.425 317.089 344.136 317.727 345.558C318.364 346.93 318.683 348.548 318.683 350.411C318.683 351.098 318.658 351.661 318.609 352.103C318.609 352.544 318.609 352.814 318.609 352.912L318.83 353.059C319.859 350.853 321.355 348.695 323.316 346.587C325.326 344.479 327.459 343.425 329.714 343.425C332.312 343.425 334.323 344.356 335.744 346.219C337.215 348.033 337.951 350.46 337.951 353.5C337.951 356.491 337.509 359.383 336.627 362.178C335.744 364.923 334.739 367.179 333.612 368.944C331.896 371.64 329.886 373.798 327.581 375.415C325.326 377.033 323.022 377.842 320.668 377.842C319.148 377.842 317.776 377.328 316.55 376.298C315.324 375.219 314.442 373.577 313.903 371.371L313.608 371.224L308.46 390.786L308.313 391.521C308.313 391.864 308.411 392.085 308.608 392.183C308.804 392.33 309.122 392.404 309.564 392.404H318.536L317.947 394.463H295.444L296.032 392.404ZM320.668 376.077C322.188 376.077 323.635 375.244 325.007 373.577C326.38 371.91 327.557 369.998 328.537 367.841C329.763 365.095 330.744 362.178 331.479 359.089C332.263 356 332.656 353.157 332.656 350.558C332.656 349.088 332.386 347.837 331.847 346.808C331.356 345.729 330.498 345.19 329.273 345.19C327.459 345.19 325.718 346.121 324.051 347.984C322.384 349.798 320.84 352.25 319.418 355.339C318.438 357.545 317.58 359.996 316.844 362.693C316.109 365.389 315.741 367.596 315.741 369.311C315.741 371.469 316.182 373.136 317.065 374.312C317.947 375.489 319.148 376.077 320.668 376.077Z" fill="white"/>
<path d="M288.335 377.842C287.011 377.842 285.884 377.254 284.952 376.077C284.07 374.901 283.628 373.136 283.628 370.782C283.628 369.704 283.775 368.429 284.07 366.958C284.364 365.438 284.707 364.213 285.099 363.281L289.806 352.323C290.051 351.784 290.296 351.073 290.541 350.191C290.835 349.308 290.983 348.573 290.983 347.984C290.983 347.298 290.835 346.734 290.541 346.293C290.296 345.852 289.904 345.631 289.365 345.631C286.423 345.631 283.31 348.401 280.025 353.941C278.064 357.275 276.299 360.585 274.73 363.869C273.21 367.154 272.131 369.9 271.494 372.106L270.023 376.96H265.169L271.273 354.235C271.371 353.892 271.592 353.108 271.935 351.882C272.327 350.607 272.524 349.48 272.524 348.499C272.524 346.587 271.739 345.631 270.17 345.631C268.896 345.631 267.155 347.273 264.949 350.558C262.743 353.843 260.585 357.643 258.477 361.957C256.418 366.272 255.021 369.655 254.285 372.106L252.814 376.96H247.961L254.138 354.235C254.874 351.294 255.241 349.21 255.241 347.984C255.241 347.298 255.143 346.783 254.947 346.44C254.751 346.097 254.383 345.925 253.844 345.925C251.344 345.925 248.696 349.847 245.901 357.692L244.431 357.251C247.666 348.033 251.246 343.425 255.168 343.425C258.06 343.425 259.507 345.95 259.507 351C259.507 351.833 259.286 353.279 258.845 355.339C258.404 357.398 257.962 358.893 257.521 359.825L257.815 360.045L258.698 358.427C260.904 354.211 263.037 350.656 265.096 347.764C267.204 344.871 269.214 343.425 271.126 343.425C274.901 343.425 276.789 345.754 276.789 350.411C276.789 351.441 276.544 352.936 276.054 354.897C275.612 356.858 275.196 358.501 274.803 359.825L275.024 360.045L276.054 358.207C278.211 354.039 280.393 350.534 282.599 347.69C284.854 344.847 287.33 343.425 290.027 343.425C291.497 343.425 292.65 344.038 293.483 345.263C294.365 346.44 294.807 348.181 294.807 350.485C294.807 351.563 294.66 352.887 294.365 354.456C294.071 355.976 293.728 357.153 293.336 357.986L288.629 368.944C288.384 369.483 288.114 370.194 287.82 371.076C287.575 371.959 287.453 372.694 287.453 373.283C287.453 373.969 287.6 374.533 287.894 374.974C288.188 375.415 288.605 375.636 289.144 375.636C290.811 375.636 292.404 374.361 293.924 371.812C295.444 369.262 296.743 366.517 297.822 363.575L299.293 364.016C297.969 367.988 296.351 371.297 294.439 373.945C292.576 376.543 290.541 377.842 288.335 377.842Z" fill="white"/>
<defs>
<filter id="filter0_d_4_1042" x="234" y="391" width="591" height="13" filterUnits="userSpaceOnUse" color-interpolation-filters="sRGB">
<feFlood flood-opacity="0" result="BackgroundImageFix"/>
<feColorMatrix in="SourceAlpha" type="matrix" values="0 0 0 0 0 0 0 0 0 0 0 0 0 0 0 0 0 0 127 0" result="hardAlpha"/>
<feOffset dy="4"/>
<feGaussianBlur stdDeviation="2"/>
<feComposite in2="hardAlpha" operator="out"/>
<feColorMatrix type="matrix" values="0 0 0 0 0 0 0 0 0 0 0 0 0 0 0 0 0 0 0.25 0"/>
<feBlend mode="normal" in2="BackgroundImageFix" result="effect1_dropShadow_4_1042"/>
<feBlend mode="normal" in="SourceGraphic" in2="effect1_dropShadow_4_1042" result="shape"/>
</filter>
</defs>
</svg>
