<svg width="464" height="302" viewBox="0 0 464 302" fill="none" xmlns="http://www.w3.org/2000/svg">
<path d="M8.4 59.76H15.12C15.82 59.76 16.31 59.62 16.59 59.34C16.9167 59.06 17.08 58.5933 17.08 57.94V23.57H8.4V21.05H12.25C14.77 21.05 16.8 20.3733 18.34 19.02C19.9267 17.6667 20.9067 16.0333 21.28 14.12H23.52V57.94C23.52 58.5933 23.66 59.06 23.94 59.34C24.2667 59.62 24.78 59.76 25.48 59.76H32.2V62H8.4V59.76ZM60.9055 63.12C57.5921 63.12 54.6521 61.93 52.0855 59.55C49.5188 57.17 47.5121 54.0667 46.0655 50.24C44.6655 46.3667 43.9655 42.3067 43.9655 38.06C43.9655 33.8133 44.6655 29.7767 46.0655 25.95C47.5121 22.0767 49.5188 18.95 52.0855 16.57C54.6521 14.19 57.5921 13 60.9055 13C64.1721 13 67.0888 14.19 69.6555 16.57C72.2688 18.95 74.2755 22.0767 75.6755 25.95C77.1221 29.7767 77.8455 33.8133 77.8455 38.06C77.8455 42.3067 77.1221 46.3667 75.6755 50.24C74.2755 54.0667 72.2688 57.17 69.6555 59.55C67.0888 61.93 64.1721 63.12 60.9055 63.12ZM60.9055 60.88C64.7788 60.88 67.3221 58.6867 68.5355 54.3C69.7955 49.9133 70.4255 44.5 70.4255 38.06C70.4255 31.62 69.7955 26.2067 68.5355 21.82C67.3221 17.4333 64.7788 15.24 60.9055 15.24C57.0321 15.24 54.4655 17.4333 53.2055 21.82C51.9921 26.16 51.3855 31.5733 51.3855 38.06C51.3855 44.5467 51.9921 49.9833 53.2055 54.37C54.4655 58.71 57.0321 60.88 60.9055 60.88ZM101.511 63.12C98.1976 63.12 95.2576 61.93 92.6909 59.55C90.1243 57.17 88.1176 54.0667 86.6709 50.24C85.2709 46.3667 84.5709 42.3067 84.5709 38.06C84.5709 33.8133 85.2709 29.7767 86.6709 25.95C88.1176 22.0767 90.1243 18.95 92.6909 16.57C95.2576 14.19 98.1976 13 101.511 13C104.778 13 107.694 14.19 110.261 16.57C112.874 18.95 114.881 22.0767 116.281 25.95C117.728 29.7767 118.451 33.8133 118.451 38.06C118.451 42.3067 117.728 46.3667 116.281 50.24C114.881 54.0667 112.874 57.17 110.261 59.55C107.694 61.93 104.778 63.12 101.511 63.12ZM101.511 60.88C105.384 60.88 107.928 58.6867 109.141 54.3C110.401 49.9133 111.031 44.5 111.031 38.06C111.031 31.62 110.401 26.2067 109.141 21.82C107.928 17.4333 105.384 15.24 101.511 15.24C97.6376 15.24 95.0709 17.4333 93.8109 21.82C92.5976 26.16 91.9909 31.5733 91.9909 38.06C91.9909 44.5467 92.5976 49.9833 93.8109 54.37C95.0709 58.71 97.6376 60.88 101.511 60.88ZM168.946 62.84C166.706 62.84 165.119 62.2333 164.186 61.02C163.299 59.76 162.809 57.8 162.716 55.14C162.622 51.8733 162.249 49.5633 161.596 48.21C160.989 46.8567 159.822 46.18 158.096 46.18H153.616V58.78C153.616 59.34 153.732 59.7367 153.966 59.97C154.199 60.2033 154.596 60.32 155.156 60.32H158.096V62H144.096V60.32H147.036C147.596 60.32 147.992 60.2033 148.226 59.97C148.459 59.7367 148.576 59.34 148.576 58.78V33.37C148.576 32.81 148.459 32.4133 148.226 32.18C147.992 31.9467 147.596 31.83 147.036 31.83H144.096V30.15H158.096V31.83H155.156C154.596 31.83 154.199 31.9467 153.966 32.18C153.732 32.4133 153.616 32.81 153.616 33.37V44.5H158.166C159.706 44.5 160.779 43.6133 161.386 41.84C162.039 40.02 162.459 37.8033 162.646 35.19C162.786 33.1833 163.322 31.69 164.256 30.71C165.236 29.73 166.379 29.24 167.686 29.24C169.226 29.24 170.369 29.7533 171.116 30.78C171.909 31.8067 172.306 32.95 172.306 34.21C172.306 35.47 171.932 36.4967 171.186 37.29C170.439 38.0833 169.552 38.48 168.526 38.48C167.592 38.48 166.869 38.2233 166.356 37.71C165.842 37.1967 165.586 36.5667 165.586 35.82C165.586 35.4 165.702 35.0033 165.936 34.63C166.169 34.21 166.426 33.9067 166.706 33.72C167.219 33.3467 167.476 32.95 167.476 32.53C167.476 31.8767 167.102 31.55 166.356 31.55C165.796 31.55 165.306 31.8767 164.886 32.53C164.512 33.1367 164.302 34 164.256 35.12C164.116 37.5 163.742 39.67 163.136 41.63C162.529 43.59 161.549 44.8033 160.196 45.27V45.48C163.136 46.32 165.282 47.6033 166.636 49.33C167.289 50.1233 167.756 51.08 168.036 52.2C168.316 53.32 168.526 54.6267 168.666 56.12C168.806 57.4267 169.016 58.4533 169.296 59.2C169.622 59.9467 170.136 60.32 170.836 60.32C171.956 60.32 172.702 59.6433 173.076 58.29C173.449 56.9367 173.636 55.5133 173.636 54.02H174.896C174.896 56.2133 174.476 58.2433 173.636 60.11C172.842 61.93 171.279 62.84 168.946 62.84ZM193.932 62.84C191.366 62.84 189.009 62.0933 186.862 60.6C184.716 59.06 183.012 57.0067 181.752 54.44C180.539 51.8733 179.932 49.0733 179.932 46.04C179.932 43.0067 180.539 40.2067 181.752 37.64C183.012 35.0733 184.716 33.0433 186.862 31.55C189.009 30.01 191.366 29.24 193.932 29.24C196.499 29.24 198.856 30.01 201.002 31.55C203.149 33.0433 204.829 35.0733 206.042 37.64C207.302 40.2067 207.932 43.0067 207.932 46.04C207.932 49.0733 207.302 51.8733 206.042 54.44C204.829 57.0067 203.149 59.06 201.002 60.6C198.856 62.0933 196.499 62.84 193.932 62.84ZM193.932 61.16C196.732 61.16 198.739 59.8533 199.952 57.24C201.166 54.58 201.772 50.8467 201.772 46.04C201.772 41.2333 201.166 37.5233 199.952 34.91C198.739 32.25 196.732 30.92 193.932 30.92C191.132 30.92 189.126 32.25 187.912 34.91C186.699 37.5233 186.092 41.2333 186.092 46.04C186.092 50.8467 186.699 54.58 187.912 57.24C189.126 59.8533 191.132 61.16 193.932 61.16ZM213.259 76.42H216.899C217.459 76.42 217.855 76.3033 218.089 76.07C218.322 75.8367 218.439 75.44 218.439 74.88V33.3C218.439 32.74 218.322 32.3433 218.089 32.11C217.855 31.8767 217.459 31.76 216.899 31.76H213.259V30.08H223.479V35.26L223.759 35.33C224.645 33.4633 225.765 31.9933 227.119 30.92C228.519 29.8 230.105 29.24 231.879 29.24C234.072 29.24 236.102 29.9867 237.969 31.48C239.882 32.9267 241.399 34.9333 242.519 37.5C243.639 40.0667 244.199 42.9133 244.199 46.04C244.199 49.1667 243.639 52.0133 242.519 54.58C241.399 57.1467 239.882 59.1767 237.969 60.67C236.102 62.1167 234.072 62.84 231.879 62.84C230.059 62.84 228.425 62.2567 226.979 61.09C225.532 59.8767 224.459 58.43 223.759 56.75L223.479 56.82V74.88C223.479 75.44 223.595 75.8367 223.829 76.07C224.062 76.3033 224.459 76.42 225.019 76.42H228.659V78.1H213.259V76.42ZM231.109 60.88C233.395 60.88 235.122 59.5967 236.289 57.03C237.455 54.4633 238.039 50.8 238.039 46.04C238.039 41.28 237.455 37.6167 236.289 35.05C235.122 32.4833 233.395 31.2 231.109 31.2C229.709 31.2 228.425 31.7133 227.259 32.74C226.092 33.7667 225.159 35.19 224.459 37.01C223.805 38.7833 223.479 40.72 223.479 42.82V49.26C223.479 51.36 223.805 53.32 224.459 55.14C225.159 56.9133 226.092 58.3133 227.259 59.34C228.425 60.3667 229.709 60.88 231.109 60.88ZM264.889 62.84C262.323 62.84 259.966 62.0933 257.819 60.6C255.673 59.06 253.969 57.0067 252.709 54.44C251.496 51.8733 250.889 49.0733 250.889 46.04C250.889 43.0067 251.496 40.2067 252.709 37.64C253.969 35.0733 255.673 33.0433 257.819 31.55C259.966 30.01 262.323 29.24 264.889 29.24C267.456 29.24 269.813 30.01 271.959 31.55C274.106 33.0433 275.786 35.0733 276.999 37.64C278.259 40.2067 278.889 43.0067 278.889 46.04C278.889 49.0733 278.259 51.8733 276.999 54.44C275.786 57.0067 274.106 59.06 271.959 60.6C269.813 62.0933 267.456 62.84 264.889 62.84ZM264.889 61.16C267.689 61.16 269.696 59.8533 270.909 57.24C272.123 54.58 272.729 50.8467 272.729 46.04C272.729 41.2333 272.123 37.5233 270.909 34.91C269.696 32.25 267.689 30.92 264.889 30.92C262.089 30.92 260.083 32.25 258.869 34.91C257.656 37.5233 257.049 41.2333 257.049 46.04C257.049 50.8467 257.656 54.58 258.869 57.24C260.083 59.8533 262.089 61.16 264.889 61.16ZM299.616 62.84C297.049 62.84 294.693 62.0933 292.546 60.6C290.399 59.06 288.696 57.0067 287.436 54.44C286.223 51.8733 285.616 49.0733 285.616 46.04C285.616 43.4733 285.686 41.1867 285.826 39.18C285.966 37.1733 286.293 35.19 286.806 33.23C287.553 30.3367 288.906 27.6533 290.866 25.18C292.593 22.94 294.529 21.2133 296.676 20C298.823 18.74 301.343 17.5967 304.236 16.57C305.823 15.9633 307.083 15.4033 308.016 14.89C308.996 14.33 309.649 13.7 309.976 13C310.163 12.6733 310.303 12.09 310.396 11.25H311.936V12.23C311.936 15.4967 311.026 17.9233 309.206 19.51C307.386 21.05 305.169 22.1467 302.556 22.8C300.316 23.36 298.309 24.0133 296.536 24.76C294.809 25.46 293.316 26.3933 292.056 27.56C290.843 28.68 289.886 29.9633 289.186 31.41C288.533 32.8567 288.136 34.28 287.996 35.68L288.486 35.82C289.793 33.7667 291.426 32.1567 293.386 30.99C295.346 29.8233 297.423 29.24 299.616 29.24C302.183 29.24 304.539 30.01 306.686 31.55C308.833 33.0433 310.513 35.0733 311.726 37.64C312.986 40.2067 313.616 43.0067 313.616 46.04C313.616 49.0733 312.986 51.8733 311.726 54.44C310.513 57.0067 308.833 59.06 306.686 60.6C304.539 62.0933 302.183 62.84 299.616 62.84ZM299.616 61.16C302.416 61.16 304.423 59.8533 305.636 57.24C306.849 54.58 307.456 50.8467 307.456 46.04C307.456 41.2333 306.849 37.5233 305.636 34.91C304.423 32.25 302.416 30.92 299.616 30.92C296.816 30.92 294.809 32.25 293.596 34.91C292.383 37.5233 291.776 41.2333 291.776 46.04C291.776 50.8467 292.383 54.58 293.596 57.24C294.809 59.8533 296.816 61.16 299.616 61.16ZM334.342 62.84C331.776 62.84 329.419 62.0933 327.272 60.6C325.126 59.06 323.422 57.0067 322.162 54.44C320.949 51.8733 320.342 49.0733 320.342 46.04C320.342 43.0067 320.949 40.2067 322.162 37.64C323.422 35.0733 325.126 33.0433 327.272 31.55C329.419 30.01 331.776 29.24 334.342 29.24C336.909 29.24 339.266 30.01 341.412 31.55C343.559 33.0433 345.239 35.0733 346.452 37.64C347.712 40.2067 348.342 43.0067 348.342 46.04C348.342 49.0733 347.712 51.8733 346.452 54.44C345.239 57.0067 343.559 59.06 341.412 60.6C339.266 62.0933 336.909 62.84 334.342 62.84ZM334.342 61.16C337.142 61.16 339.149 59.8533 340.362 57.24C341.576 54.58 342.182 50.8467 342.182 46.04C342.182 41.2333 341.576 37.5233 340.362 34.91C339.149 32.25 337.142 30.92 334.342 30.92C331.542 30.92 329.536 32.25 328.322 34.91C327.109 37.5233 326.502 41.2333 326.502 46.04C326.502 50.8467 327.109 54.58 328.322 57.24C329.536 59.8533 331.542 61.16 334.342 61.16ZM379.219 62.84C376.979 62.84 375.392 62.2333 374.459 61.02C373.572 59.76 373.082 57.8 372.989 55.14C372.896 51.8733 372.522 49.5633 371.869 48.21C371.262 46.8567 370.096 46.18 368.369 46.18H363.889V58.78C363.889 59.34 364.006 59.7367 364.239 59.97C364.472 60.2033 364.869 60.32 365.429 60.32H368.369V62H354.369V60.32H357.309C357.869 60.32 358.266 60.2033 358.499 59.97C358.732 59.7367 358.849 59.34 358.849 58.78V33.37C358.849 32.81 358.732 32.4133 358.499 32.18C358.266 31.9467 357.869 31.83 357.309 31.83H354.369V30.15H368.369V31.83H365.429C364.869 31.83 364.472 31.9467 364.239 32.18C364.006 32.4133 363.889 32.81 363.889 33.37V44.5H368.439C369.979 44.5 371.052 43.6133 371.659 41.84C372.312 40.02 372.732 37.8033 372.919 35.19C373.059 33.1833 373.596 31.69 374.529 30.71C375.509 29.73 376.652 29.24 377.959 29.24C379.499 29.24 380.642 29.7533 381.389 30.78C382.182 31.8067 382.579 32.95 382.579 34.21C382.579 35.47 382.206 36.4967 381.459 37.29C380.712 38.0833 379.826 38.48 378.799 38.48C377.866 38.48 377.142 38.2233 376.629 37.71C376.116 37.1967 375.859 36.5667 375.859 35.82C375.859 35.4 375.976 35.0033 376.209 34.63C376.442 34.21 376.699 33.9067 376.979 33.72C377.492 33.3467 377.749 32.95 377.749 32.53C377.749 31.8767 377.376 31.55 376.629 31.55C376.069 31.55 375.579 31.8767 375.159 32.53C374.786 33.1367 374.576 34 374.529 35.12C374.389 37.5 374.016 39.67 373.409 41.63C372.802 43.59 371.822 44.8033 370.469 45.27V45.48C373.409 46.32 375.556 47.6033 376.909 49.33C377.562 50.1233 378.029 51.08 378.309 52.2C378.589 53.32 378.799 54.6267 378.939 56.12C379.079 57.4267 379.289 58.4533 379.569 59.2C379.896 59.9467 380.409 60.32 381.109 60.32C382.229 60.32 382.976 59.6433 383.349 58.29C383.722 56.9367 383.909 55.5133 383.909 54.02H385.169C385.169 56.2133 384.749 58.2433 383.909 60.11C383.116 61.93 381.552 62.84 379.219 62.84Z" fill="white"/>
<path d="M20.51 180.12C18.83 180.12 17.43 179.467 16.31 178.16C15.2367 176.853 14.7 175.08 14.7 172.84C14.7 170.04 15.3767 167.403 16.73 164.93C18.13 162.457 20.0667 159.773 22.54 156.88C26.18 152.68 28.8867 149.087 30.66 146.1C31.8267 144.047 32.6667 141.877 33.18 139.59L32.9 139.38C31.4533 140.593 29.8433 141.2 28.07 141.2C26.2033 141.2 24.1733 140.78 21.98 139.94C20.02 139.287 18.1067 138.96 16.24 138.96C14.3267 138.96 12.7633 139.45 11.55 140.43C10.3367 141.363 9.63667 142.833 9.45 144.84L9.1 149.04H6.58L8.19 129.16H10.71L10.36 133.78L10.64 133.92C13.3467 130.373 16.31 128.6 19.53 128.6C20.9767 128.6 22.1667 128.997 23.1 129.79C24.08 130.537 25.06 131.61 26.04 133.01C26.9733 134.363 27.8133 135.413 28.56 136.16C29.3067 136.907 30.0533 137.28 30.8 137.28C32.2933 137.28 33.04 136.58 33.04 135.18C33.04 134.34 32.5733 133.64 31.64 133.08C30.4733 132.427 29.89 131.563 29.89 130.49C29.89 129.93 30.0767 129.487 30.45 129.16C30.8233 128.787 31.3367 128.6 31.99 128.6C33.2033 128.6 34.1833 129.3 34.93 130.7C35.7233 132.1 36.12 133.547 36.12 135.04C36.12 138.073 35.6767 140.85 34.79 143.37C33.9033 145.843 32.5033 148.643 30.59 151.77C28.8167 154.71 27.58 157.977 26.88 161.57C26.2267 165.117 25.9 168.897 25.9 172.91C25.9 175.337 25.41 177.157 24.43 178.37C23.4967 179.537 22.19 180.12 20.51 180.12ZM60.9055 180.12C57.5455 180.12 54.5821 178.813 52.0155 176.2C49.4955 173.587 47.5355 170.273 46.1355 166.26C44.7821 162.2 44.1055 158.14 44.1055 154.08C44.1055 150.02 44.7821 145.983 46.1355 141.97C47.5355 137.91 49.4955 134.573 52.0155 131.96C54.5821 129.347 57.5455 128.04 60.9055 128.04C64.2655 128.04 67.2055 129.347 69.7255 131.96C72.2921 134.573 74.2521 137.91 75.6055 141.97C77.0055 145.983 77.7055 150.02 77.7055 154.08C77.7055 158.14 77.0055 162.2 75.6055 166.26C74.2521 170.273 72.2921 173.587 69.7255 176.2C67.2055 178.813 64.2655 180.12 60.9055 180.12ZM60.9055 177.88C62.6321 177.88 63.8688 176.947 64.6155 175.08C65.4088 173.167 65.8055 171.113 65.8055 168.92V139.24C65.8055 137.047 65.4088 135.017 64.6155 133.15C63.8688 131.237 62.6321 130.28 60.9055 130.28C59.1788 130.28 57.9188 131.237 57.1255 133.15C56.3788 135.017 56.0055 137.047 56.0055 139.24V168.92C56.0055 171.113 56.3788 173.167 57.1255 175.08C57.9188 176.947 59.1788 177.88 60.9055 177.88ZM101.511 180.12C98.1509 180.12 95.1876 178.813 92.6209 176.2C90.1009 173.587 88.1409 170.273 86.7409 166.26C85.3876 162.2 84.7109 158.14 84.7109 154.08C84.7109 150.02 85.3876 145.983 86.7409 141.97C88.1409 137.91 90.1009 134.573 92.6209 131.96C95.1876 129.347 98.1509 128.04 101.511 128.04C104.871 128.04 107.811 129.347 110.331 131.96C112.898 134.573 114.858 137.91 116.211 141.97C117.611 145.983 118.311 150.02 118.311 154.08C118.311 158.14 117.611 162.2 116.211 166.26C114.858 170.273 112.898 173.587 110.331 176.2C107.811 178.813 104.871 180.12 101.511 180.12ZM101.511 177.88C103.238 177.88 104.474 176.947 105.221 175.08C106.014 173.167 106.411 171.113 106.411 168.92V139.24C106.411 137.047 106.014 135.017 105.221 133.15C104.474 131.237 103.238 130.28 101.511 130.28C99.7843 130.28 98.5243 131.237 97.7309 133.15C96.9843 135.017 96.6109 137.047 96.6109 139.24V168.92C96.6109 171.113 96.9843 173.167 97.7309 175.08C98.5243 176.947 99.7843 177.88 101.511 177.88ZM170.486 179.84C168.199 179.84 166.379 179.257 165.026 178.09C163.672 176.877 162.996 175.127 162.996 172.84V167.31C162.996 166.003 162.692 164.977 162.086 164.23C161.479 163.437 160.709 163.04 159.776 163.04H156.136V176.2C156.136 176.62 156.206 176.923 156.346 177.11C156.532 177.25 156.836 177.32 157.256 177.32H159.496V179H144.236V177.32H146.896C147.316 177.32 147.596 177.25 147.736 177.11C147.922 176.923 148.016 176.62 148.016 176.2V148.62C148.016 148.2 147.922 147.92 147.736 147.78C147.596 147.593 147.316 147.5 146.896 147.5H144.236V145.82H159.496V147.5H157.256C156.836 147.5 156.532 147.593 156.346 147.78C156.206 147.92 156.136 148.2 156.136 148.62V161.08H160.546C161.526 161.08 162.249 160.707 162.716 159.96C163.182 159.213 163.416 158.233 163.416 157.02V152.26C163.416 149.927 164.022 148.13 165.236 146.87C166.496 145.61 167.989 144.98 169.716 144.98C171.396 144.98 172.726 145.47 173.706 146.45C174.686 147.43 175.176 148.737 175.176 150.37C175.176 151.677 174.709 152.773 173.776 153.66C172.889 154.5 171.909 154.92 170.836 154.92C169.809 154.92 168.946 154.64 168.246 154.08C167.546 153.473 167.196 152.657 167.196 151.63C167.196 151.023 167.429 150.37 167.896 149.67C168.269 149.157 168.456 148.737 168.456 148.41C168.456 147.99 168.222 147.78 167.756 147.78C167.102 147.78 166.542 148.153 166.076 148.9C165.609 149.6 165.376 150.697 165.376 152.19V157.02C165.376 158.093 165.236 158.98 164.956 159.68C164.676 160.333 164.186 160.893 163.486 161.36V161.71C165.912 162.037 167.779 162.877 169.086 164.23C170.439 165.583 171.116 167.66 171.116 170.46V175.01C171.116 176.27 171.629 176.9 172.656 176.9C173.496 176.9 174.102 176.27 174.476 175.01C174.849 173.703 175.036 172.093 175.036 170.18H176.856C176.856 173.26 176.389 175.64 175.456 177.32C174.569 179 172.912 179.84 170.486 179.84ZM195.921 179.84C193.401 179.84 191.045 179.093 188.851 177.6C186.658 176.06 184.908 173.96 183.601 171.3C182.295 168.64 181.641 165.677 181.641 162.41C181.641 159.143 182.295 156.18 183.601 153.52C184.908 150.86 186.658 148.783 188.851 147.29C191.045 145.75 193.401 144.98 195.921 144.98C198.441 144.98 200.798 145.75 202.991 147.29C205.185 148.783 206.935 150.86 208.241 153.52C209.548 156.18 210.201 159.143 210.201 162.41C210.201 165.677 209.548 168.64 208.241 171.3C206.935 173.96 205.185 176.06 202.991 177.6C200.798 179.093 198.441 179.84 195.921 179.84ZM195.921 178.16C197.928 178.16 199.305 176.923 200.051 174.45C200.845 171.977 201.241 167.963 201.241 162.41C201.241 156.857 200.845 152.843 200.051 150.37C199.305 147.897 197.928 146.66 195.921 146.66C193.915 146.66 192.515 147.897 191.721 150.37C190.975 152.843 190.601 156.857 190.601 162.41C190.601 167.963 190.975 171.977 191.721 174.45C192.515 176.923 193.915 178.16 195.921 178.16ZM216.355 177.32H219.015C219.435 177.32 219.715 177.25 219.855 177.11C220.041 176.923 220.135 176.62 220.135 176.2V148.62C220.135 148.2 220.041 147.92 219.855 147.78C219.715 147.593 219.435 147.5 219.015 147.5H216.355V145.82H231.615V147.5H229.375C228.955 147.5 228.651 147.593 228.465 147.78C228.325 147.92 228.255 148.2 228.255 148.62V160.66H238.475V148.62C238.475 148.2 238.381 147.92 238.195 147.78C238.055 147.593 237.775 147.5 237.355 147.5H235.115V145.82H250.375V147.5H247.715C247.295 147.5 246.991 147.593 246.805 147.78C246.665 147.92 246.595 148.2 246.595 148.62V176.2C246.595 176.62 246.665 176.923 246.805 177.11C246.991 177.25 247.295 177.32 247.715 177.32H250.375V179H235.115V177.32H237.355C237.775 177.32 238.055 177.25 238.195 177.11C238.381 176.923 238.475 176.62 238.475 176.2V162.62H228.255V176.2C228.255 176.62 228.325 176.923 228.465 177.11C228.651 177.25 228.955 177.32 229.375 177.32H231.615V179H216.355V177.32ZM256.003 177.32H258.663C259.083 177.32 259.363 177.25 259.503 177.11C259.69 176.923 259.783 176.62 259.783 176.2V148.62C259.783 148.2 259.69 147.92 259.503 147.78C259.363 147.593 259.083 147.5 258.663 147.5H256.003V145.82H272.873C276 145.82 278.473 146.543 280.293 147.99C282.16 149.39 283.093 151.327 283.093 153.8C283.093 155.9 282.276 157.58 280.643 158.84C279.01 160.053 276.98 160.823 274.553 161.15V161.43C277.773 161.663 280.34 162.55 282.253 164.09C284.166 165.63 285.123 167.73 285.123 170.39C285.123 172.863 284.143 174.917 282.183 176.55C280.223 178.183 277.82 179 274.973 179H256.003V177.32ZM271.193 160.66C272.593 160.66 273.573 160.077 274.133 158.91C274.693 157.697 274.973 156.063 274.973 154.01C274.973 151.91 274.646 150.3 273.993 149.18C273.34 148.06 272.406 147.5 271.193 147.5H269.023C268.603 147.5 268.3 147.593 268.113 147.78C267.973 147.92 267.903 148.2 267.903 148.62V160.66H271.193ZM271.683 177.32C273.13 177.32 274.226 176.62 274.973 175.22C275.766 173.773 276.163 171.953 276.163 169.76C276.163 167.613 275.79 165.887 275.043 164.58C274.296 163.273 273.176 162.62 271.683 162.62H267.903V176.2C267.903 176.62 267.973 176.923 268.113 177.11C268.3 177.25 268.603 177.32 269.023 177.32H271.683ZM306.473 179.84C303.58 179.84 300.99 179.07 298.703 177.53C296.463 175.943 294.713 173.82 293.453 171.16C292.193 168.5 291.563 165.583 291.563 162.41C291.563 159.143 292.193 156.18 293.453 153.52C294.713 150.86 296.416 148.783 298.563 147.29C300.756 145.75 303.136 144.98 305.703 144.98C308.55 144.98 311 146.007 313.053 148.06C315.106 150.067 316.46 152.727 317.113 156.04C317.44 157.533 317.603 159.867 317.603 163.04H300.523C300.523 165.28 300.57 167.053 300.663 168.36C300.756 169.62 300.966 170.857 301.293 172.07C301.713 173.797 302.506 175.173 303.673 176.2C304.886 177.227 306.286 177.74 307.873 177.74C310.16 177.74 312.003 176.737 313.403 174.73C314.803 172.723 315.643 170.367 315.923 167.66H317.743C317.463 170.88 316.413 173.727 314.593 176.2C312.773 178.627 310.066 179.84 306.473 179.84ZM309.483 161.08C309.483 156.18 309.156 152.563 308.503 150.23C307.896 147.85 306.73 146.66 305.003 146.66C303.276 146.66 302.086 147.85 301.433 150.23C300.826 152.563 300.523 156.18 300.523 161.08H309.483ZM323.181 193.28H327.101C327.521 193.28 327.801 193.187 327.941 193C328.127 192.86 328.221 192.58 328.221 192.16V148.62C328.221 148.2 328.127 147.92 327.941 147.78C327.801 147.593 327.521 147.5 327.101 147.5H323.181V145.82H336.341V149.88H336.761C337.367 148.573 338.231 147.43 339.351 146.45C340.517 145.47 341.847 144.98 343.341 144.98C345.767 144.98 347.937 145.82 349.851 147.5C351.764 149.133 353.257 151.303 354.331 154.01C355.404 156.67 355.941 159.47 355.941 162.41C355.941 165.397 355.427 168.22 354.401 170.88C353.374 173.54 351.927 175.71 350.061 177.39C348.194 179.023 346.047 179.84 343.621 179.84C342.127 179.84 340.797 179.397 339.631 178.51C338.464 177.623 337.507 176.41 336.761 174.87L336.341 175.01V192.16C336.341 192.58 336.411 192.86 336.551 193C336.737 193.187 337.041 193.28 337.461 193.28H341.381V194.96H323.181V193.28ZM342.361 177.6C345.441 177.6 346.981 172.537 346.981 162.41C346.981 152.283 345.441 147.22 342.361 147.22C341.287 147.22 340.284 147.897 339.351 149.25C338.464 150.557 337.741 152.353 337.181 154.64C336.621 156.927 336.341 159.447 336.341 162.2C336.341 165.56 336.667 168.407 337.321 170.74C337.974 173.073 338.767 174.8 339.701 175.92C340.634 177.04 341.521 177.6 342.361 177.6ZM367.137 177.32H371.057C371.477 177.32 371.757 177.25 371.897 177.11C372.084 176.923 372.177 176.62 372.177 176.2V148.62C372.177 148.153 372.084 147.85 371.897 147.71C371.757 147.57 371.477 147.5 371.057 147.5C370.03 147.5 369.027 148.083 368.047 149.25C367.114 150.37 366.344 151.677 365.737 153.17C365.084 154.757 364.594 156.157 364.267 157.37C363.987 158.583 363.824 159.353 363.777 159.68H361.817L362.237 145.82H390.237L390.657 159.68H388.697C388.65 159.353 388.464 158.583 388.137 157.37C387.857 156.157 387.39 154.757 386.737 153.17C386.13 151.677 385.337 150.37 384.357 149.25C383.424 148.083 382.444 147.5 381.417 147.5C380.997 147.5 380.694 147.57 380.507 147.71C380.367 147.85 380.297 148.153 380.297 148.62V176.2C380.297 176.62 380.367 176.923 380.507 177.11C380.694 177.25 380.997 177.32 381.417 177.32H385.337V179H367.137V177.32ZM410.843 179.84C408.323 179.84 405.966 179.093 403.773 177.6C401.58 176.06 399.83 173.96 398.523 171.3C397.216 168.64 396.563 165.677 396.563 162.41C396.563 159.143 397.216 156.18 398.523 153.52C399.83 150.86 401.58 148.783 403.773 147.29C405.966 145.75 408.323 144.98 410.843 144.98C413.363 144.98 415.72 145.75 417.913 147.29C420.106 148.783 421.856 150.86 423.163 153.52C424.47 156.18 425.123 159.143 425.123 162.41C425.123 165.677 424.47 168.64 423.163 171.3C421.856 173.96 420.106 176.06 417.913 177.6C415.72 179.093 413.363 179.84 410.843 179.84ZM410.843 178.16C412.85 178.16 414.226 176.923 414.973 174.45C415.766 171.977 416.163 167.963 416.163 162.41C416.163 156.857 415.766 152.843 414.973 150.37C414.226 147.897 412.85 146.66 410.843 146.66C408.836 146.66 407.436 147.897 406.643 150.37C405.896 152.843 405.523 156.857 405.523 162.41C405.523 167.963 405.896 171.977 406.643 174.45C407.436 176.923 408.836 178.16 410.843 178.16ZM431.277 177.32H433.937C434.357 177.32 434.637 177.25 434.777 177.11C434.963 176.923 435.057 176.62 435.057 176.2V148.62C435.057 148.2 434.963 147.92 434.777 147.78C434.637 147.593 434.357 147.5 433.937 147.5H431.277V145.82H448.147C451.273 145.82 453.747 146.543 455.567 147.99C457.433 149.39 458.367 151.327 458.367 153.8C458.367 155.9 457.55 157.58 455.917 158.84C454.283 160.053 452.253 160.823 449.827 161.15V161.43C453.047 161.663 455.613 162.55 457.527 164.09C459.44 165.63 460.397 167.73 460.397 170.39C460.397 172.863 459.417 174.917 457.457 176.55C455.497 178.183 453.093 179 450.247 179H431.277V177.32ZM446.467 160.66C447.867 160.66 448.847 160.077 449.407 158.91C449.967 157.697 450.247 156.063 450.247 154.01C450.247 151.91 449.92 150.3 449.267 149.18C448.613 148.06 447.68 147.5 446.467 147.5H444.297C443.877 147.5 443.573 147.593 443.387 147.78C443.247 147.92 443.177 148.2 443.177 148.62V160.66H446.467ZM446.957 177.32C448.403 177.32 449.5 176.62 450.247 175.22C451.04 173.773 451.437 171.953 451.437 169.76C451.437 167.613 451.063 165.887 450.317 164.58C449.57 163.273 448.45 162.62 446.957 162.62H443.177V176.2C443.177 176.62 443.247 176.923 443.387 177.11C443.573 177.25 443.877 177.32 444.297 177.32H446.957Z" fill="white"/>
<path d="M17.64 278.12C14.3267 278.12 11.5967 276.79 9.45 274.13C7.35 271.47 6.3 267.48 6.3 262.16C6.3 258.8 6.90667 255.02 8.12 250.82C9.33333 246.573 11.0367 242.7 13.23 239.2C15.61 235.373 18.2933 232.55 21.28 230.73C24.3133 228.91 27.2767 228 30.17 228C31.29 228 32.3633 228.187 33.39 228.56C34.4633 228.933 35.35 229.423 36.05 230.03C37.59 231.337 38.36 233.11 38.36 235.35C38.36 237.263 37.87 238.827 36.89 240.04C35.91 241.253 34.7433 241.86 33.39 241.86C32.41 241.86 31.5933 241.603 30.94 241.09C30.3333 240.53 30.03 239.783 30.03 238.85C30.03 237.59 30.3567 236.68 31.01 236.12C31.71 235.513 32.4567 235.14 33.25 235C34.4167 234.72 35 234.137 35 233.25C35 232.877 34.93 232.55 34.79 232.27C34.65 231.943 34.3233 231.57 33.81 231.15C32.97 230.543 31.71 230.24 30.03 230.24C27.79 230.24 25.55 231.243 23.31 233.25C21.1167 235.257 19.2733 237.847 17.78 241.02C15.96 244.8 14.77 248.697 14.21 252.71L14.7 253.06C15.9133 251.193 17.43 249.747 19.25 248.72C21.07 247.693 22.9367 247.18 24.85 247.18C28.2567 247.18 30.8933 248.277 32.76 250.47C34.6733 252.617 35.63 255.37 35.63 258.73C35.63 261.157 35.0933 263.63 34.02 266.15C32.9933 268.623 31.64 270.793 29.96 272.66C28.6533 274.06 26.9733 275.32 24.92 276.44C22.9133 277.56 20.4867 278.12 17.64 278.12ZM18.2 275.88C19.88 275.88 21.42 275.343 22.82 274.27C24.2667 273.15 25.48 271.703 26.46 269.93C27.44 268.11 28.1867 266.08 28.7 263.84C29.26 261.6 29.54 259.36 29.54 257.12C29.54 254.973 29.05 253.2 28.07 251.8C27.1367 250.4 25.76 249.7 23.94 249.7C20.0667 249.7 16.8233 252.617 14.21 258.45C13.0433 261.017 12.46 264.4 12.46 268.6C12.46 270.747 12.9733 272.497 14 273.85C15.0733 275.203 16.4733 275.88 18.2 275.88ZM56.5655 278.12C52.8321 278.12 50.0788 276.417 48.3055 273.01C46.5321 269.603 45.6455 264.96 45.6455 259.08C45.6455 254.32 46.6255 249.537 48.5855 244.73C50.5921 239.877 53.3688 235.887 56.9155 232.76C60.4621 229.587 64.4055 228 68.7455 228C72.4788 228 75.2321 229.703 77.0055 233.11C78.7788 236.517 79.6655 241.16 79.6655 247.04C79.6655 251.8 78.6621 256.607 76.6555 261.46C74.6955 266.267 71.9421 270.257 68.3955 273.43C64.8488 276.557 60.9055 278.12 56.5655 278.12ZM56.4255 275.88C59.5055 275.88 62.0255 274.527 63.9855 271.82C65.9921 269.067 67.8121 265.24 69.4455 260.34C70.7988 256.28 71.8955 252.383 72.7355 248.65C73.6221 244.917 74.0655 241.767 74.0655 239.2C74.0655 233.227 72.3388 230.24 68.8855 230.24C65.8988 230.24 63.3788 231.64 61.3255 234.44C59.2721 237.193 57.4521 240.973 55.8655 245.78C52.7855 255.02 51.2455 262.09 51.2455 266.99C51.2455 272.917 52.9721 275.88 56.4255 275.88ZM97.1709 278.12C93.4376 278.12 90.6843 276.417 88.9109 273.01C87.1376 269.603 86.2509 264.96 86.2509 259.08C86.2509 254.32 87.2309 249.537 89.1909 244.73C91.1976 239.877 93.9743 235.887 97.5209 232.76C101.068 229.587 105.011 228 109.351 228C113.084 228 115.838 229.703 117.611 233.11C119.384 236.517 120.271 241.16 120.271 247.04C120.271 251.8 119.268 256.607 117.261 261.46C115.301 266.267 112.548 270.257 109.001 273.43C105.454 276.557 101.511 278.12 97.1709 278.12ZM97.0309 275.88C100.111 275.88 102.631 274.527 104.591 271.82C106.598 269.067 108.418 265.24 110.051 260.34C111.404 256.28 112.501 252.383 113.341 248.65C114.228 244.917 114.671 241.767 114.671 239.2C114.671 233.227 112.944 230.24 109.491 230.24C106.504 230.24 103.984 231.64 101.931 234.44C99.8776 237.193 98.0576 240.973 96.4709 245.78C93.3909 255.02 91.8509 262.09 91.8509 266.99C91.8509 272.917 93.5776 275.88 97.0309 275.88ZM169.366 277.84C168.106 277.84 167.032 277.28 166.146 276.16C165.306 275.04 164.886 273.36 164.886 271.12C164.886 270.093 165.026 268.88 165.306 267.48C165.586 266.033 165.912 264.867 166.286 263.98L170.766 253.55C170.999 253.037 171.232 252.36 171.466 251.52C171.746 250.68 171.886 249.98 171.886 249.42C171.886 248.767 171.746 248.23 171.466 247.81C171.232 247.39 170.859 247.18 170.346 247.18C167.546 247.18 164.582 249.817 161.456 255.09C159.589 258.263 157.909 261.413 156.416 264.54C154.969 267.667 153.942 270.28 153.336 272.38L151.936 277H147.316L153.196 255.3C153.896 252.5 154.246 250.517 154.246 249.35C154.246 248.697 154.152 248.23 153.966 247.95C153.779 247.623 153.429 247.46 152.916 247.46C151.609 247.46 150.279 248.557 148.926 250.75C147.619 252.897 146.429 255.533 145.356 258.66L143.956 258.24C147.036 249.467 150.466 245.08 154.246 245.08C156.952 245.08 158.306 247.46 158.306 252.22C158.306 253.153 158.072 254.6 157.606 256.56C157.186 258.473 156.812 259.85 156.486 260.69L156.696 260.9L157.676 259.15C159.729 255.183 161.806 251.847 163.906 249.14C166.052 246.433 168.409 245.08 170.976 245.08C172.376 245.08 173.472 245.663 174.266 246.83C175.106 247.95 175.526 249.607 175.526 251.8C175.526 252.827 175.386 254.087 175.106 255.58C174.826 257.027 174.499 258.147 174.126 258.94L169.646 269.37C169.412 269.883 169.156 270.56 168.876 271.4C168.642 272.24 168.526 272.94 168.526 273.5C168.526 274.153 168.666 274.69 168.946 275.11C169.226 275.53 169.622 275.74 170.136 275.74C171.722 275.74 173.239 274.527 174.686 272.1C176.132 269.673 177.369 267.06 178.396 264.26L179.796 264.68C178.536 268.46 176.996 271.61 175.176 274.13C173.402 276.603 171.466 277.84 169.366 277.84ZM192.274 277.84C189.801 277.84 187.864 276.977 186.464 275.25C185.111 273.477 184.434 271.143 184.434 268.25C184.434 265.403 184.854 262.673 185.694 260.06C186.534 257.4 187.491 255.23 188.564 253.55C190.197 250.983 192.087 248.93 194.234 247.39C196.427 245.85 198.644 245.08 200.884 245.08C202.331 245.08 203.637 245.593 204.804 246.62C205.971 247.6 206.811 249.14 207.324 251.24L207.604 251.38L209.144 245.92H213.764L207.814 267.97C207.161 270.583 206.834 272.45 206.834 273.57C206.834 274.223 206.927 274.713 207.114 275.04C207.301 275.32 207.627 275.46 208.094 275.46C209.354 275.46 210.661 274.433 212.014 272.38C213.367 270.28 214.604 267.573 215.724 264.26L217.124 264.68C215.911 268.273 214.417 271.377 212.644 273.99C210.917 276.557 208.981 277.84 206.834 277.84C204.127 277.84 202.774 275.46 202.774 270.7C202.774 270.093 202.774 269.65 202.774 269.37C202.821 269.043 202.844 268.857 202.844 268.81L202.634 268.67C201.654 270.77 200.207 272.823 198.294 274.83C196.427 276.837 194.421 277.84 192.274 277.84ZM192.694 276.16C194.421 276.16 196.077 275.297 197.664 273.57C199.251 271.797 200.721 269.44 202.074 266.5C203.007 264.4 203.824 262.067 204.524 259.5C205.224 256.933 205.574 254.833 205.574 253.2C205.574 251.147 205.154 249.56 204.314 248.44C203.474 247.32 202.331 246.76 200.884 246.76C199.437 246.76 198.061 247.553 196.754 249.14C195.447 250.727 194.327 252.547 193.394 254.6C192.227 257.213 191.271 259.99 190.524 262.93C189.824 265.87 189.474 268.577 189.474 271.05C189.474 272.45 189.707 273.663 190.174 274.69C190.687 275.67 191.527 276.16 192.694 276.16ZM244.643 277.84C243.243 277.84 242.053 277.397 241.073 276.51C240.093 275.623 239.603 274.2 239.603 272.24C239.603 270.933 239.93 269.393 240.583 267.62C240.63 267.433 240.747 267.013 240.933 266.36C241.167 265.66 241.283 264.983 241.283 264.33C241.283 263.303 241.073 262.533 240.653 262.02C240.233 261.46 239.37 261.18 238.063 261.18H233.723L229.383 277H224.763L230.643 255.58C230.69 255.347 230.9 254.53 231.273 253.13C231.693 251.683 231.903 250.47 231.903 249.49C231.903 248.137 231.437 247.46 230.503 247.46C229.197 247.46 227.867 248.557 226.513 250.75C225.207 252.897 224.017 255.533 222.943 258.66L221.543 258.24C222.803 254.693 224.25 251.613 225.883 249C227.517 246.387 229.5 245.08 231.833 245.08C232.72 245.08 233.49 245.407 234.143 246.06C234.843 246.667 235.31 247.343 235.543 248.09C235.823 249.07 235.963 250.213 235.963 251.52C235.963 252.36 235.66 253.993 235.053 256.42L234.213 259.5H238.693C239.907 259.5 241.027 258.613 242.053 256.84C243.08 255.067 243.967 252.943 244.713 250.47C245.32 248.463 246.16 247.063 247.233 246.27C248.307 245.477 249.45 245.08 250.663 245.08C251.317 245.08 251.947 245.243 252.553 245.57C253.16 245.897 253.603 246.247 253.883 246.62C254.35 247.227 254.653 247.787 254.793 248.3C254.933 248.813 255.003 249.42 255.003 250.12C255.003 251.38 254.653 252.43 253.953 253.27C253.3 254.063 252.483 254.46 251.503 254.46C250.85 254.46 250.267 254.25 249.753 253.83C249.24 253.41 248.983 252.827 248.983 252.08C248.983 251.427 249.193 250.797 249.613 250.19C249.94 249.677 250.103 249.28 250.103 249C250.103 248.627 250.01 248.347 249.823 248.16C249.637 247.973 249.287 247.88 248.773 247.88C248.12 247.88 247.607 248.113 247.233 248.58C246.86 249.047 246.533 249.723 246.253 250.61C245.647 252.617 244.877 254.6 243.943 256.56C243.01 258.52 242.1 259.663 241.213 259.99L241.143 260.34C242.357 260.433 243.43 260.97 244.363 261.95C245.297 262.883 245.763 264.12 245.763 265.66C245.763 266.873 245.483 268.413 244.923 270.28C244.55 271.773 244.363 272.777 244.363 273.29C244.363 273.85 244.48 274.34 244.713 274.76C244.947 275.18 245.32 275.39 245.833 275.39C246.113 275.39 246.37 275.343 246.603 275.25C246.837 275.157 247.163 274.947 247.583 274.62C248.797 273.733 249.8 272.473 250.593 270.84C251.387 269.16 252.297 266.967 253.323 264.26L254.723 264.68C251.69 273.453 248.33 277.84 244.643 277.84ZM270.393 277.84C267.593 277.84 265.33 276.697 263.603 274.41C261.876 272.077 261.013 269.253 261.013 265.94C261.013 263.14 261.526 260.387 262.553 257.68C263.58 254.927 265.12 252.477 267.173 250.33C270.533 246.83 274.033 245.08 277.673 245.08C279.54 245.08 281.056 245.547 282.223 246.48C283.436 247.367 284.043 248.86 284.043 250.96C284.043 254.6 281.686 257.517 276.973 259.71C275.386 260.457 273.8 260.993 272.213 261.32C270.626 261.6 268.9 261.81 267.033 261.95C266.8 262.93 266.566 264.213 266.333 265.8C266.146 267.34 266.053 268.787 266.053 270.14C266.053 272.193 266.496 273.71 267.383 274.69C268.316 275.67 269.436 276.16 270.743 276.16C273.636 276.16 275.993 274.993 277.813 272.66C279.633 270.327 280.916 268.157 281.663 266.15L283.133 266.64C282.013 269.813 280.31 272.473 278.023 274.62C275.736 276.767 273.193 277.84 270.393 277.84ZM267.453 260.2C270.86 259.967 273.59 259.383 275.643 258.45C277.136 257.797 278.35 256.77 279.283 255.37C280.216 253.97 280.683 252.36 280.683 250.54C280.683 249.187 280.403 248.23 279.843 247.67C279.283 247.063 278.583 246.76 277.743 246.76C275.83 246.76 274.056 247.647 272.423 249.42C270.79 251.147 269.6 253.037 268.853 255.09C268.62 255.837 268.363 256.723 268.083 257.75C267.803 258.777 267.593 259.593 267.453 260.2ZM330.394 277.84C329.134 277.84 328.061 277.28 327.174 276.16C326.334 275.04 325.914 273.36 325.914 271.12C325.914 270.093 326.054 268.88 326.334 267.48C326.614 266.033 326.941 264.867 327.314 263.98L331.794 253.55C332.027 253.037 332.261 252.36 332.494 251.52C332.774 250.68 332.914 249.98 332.914 249.42C332.914 248.767 332.774 248.23 332.494 247.81C332.261 247.39 331.887 247.18 331.374 247.18C328.574 247.18 325.611 249.817 322.484 255.09C320.617 258.263 318.937 261.413 317.444 264.54C315.997 267.667 314.971 270.28 314.364 272.38L312.964 277H308.344L314.154 255.37C314.247 255.043 314.457 254.297 314.784 253.13C315.157 251.917 315.344 250.843 315.344 249.91C315.344 248.09 314.597 247.18 313.104 247.18C311.891 247.18 310.234 248.743 308.134 251.87C306.034 254.997 303.981 258.613 301.974 262.72C300.014 266.827 298.684 270.047 297.984 272.38L296.584 277H291.964L297.844 255.37C298.544 252.57 298.894 250.587 298.894 249.42C298.894 248.767 298.801 248.277 298.614 247.95C298.427 247.623 298.077 247.46 297.564 247.46C295.184 247.46 292.664 251.193 290.004 258.66L288.604 258.24C291.684 249.467 295.091 245.08 298.824 245.08C301.577 245.08 302.954 247.483 302.954 252.29C302.954 253.083 302.744 254.46 302.324 256.42C301.904 258.38 301.484 259.803 301.064 260.69L301.344 260.9L302.184 259.36C304.284 255.347 306.314 251.963 308.274 249.21C310.281 246.457 312.194 245.08 314.014 245.08C317.607 245.08 319.404 247.297 319.404 251.73C319.404 252.71 319.171 254.133 318.704 256C318.284 257.867 317.887 259.43 317.514 260.69L317.724 260.9L318.704 259.15C320.757 255.183 322.834 251.847 324.934 249.14C327.081 246.433 329.437 245.08 332.004 245.08C333.404 245.08 334.501 245.663 335.294 246.83C336.134 247.95 336.554 249.607 336.554 251.8C336.554 252.827 336.414 254.087 336.134 255.58C335.854 257.027 335.527 258.147 335.154 258.94L330.674 269.37C330.441 269.883 330.184 270.56 329.904 271.4C329.671 272.24 329.554 272.94 329.554 273.5C329.554 274.153 329.694 274.69 329.974 275.11C330.254 275.53 330.651 275.74 331.164 275.74C332.751 275.74 334.267 274.527 335.714 272.1C337.161 269.673 338.397 267.06 339.424 264.26L340.824 264.68C339.564 268.46 338.024 271.61 336.204 274.13C334.431 276.603 332.494 277.84 330.394 277.84ZM355.5 277.84C353.914 277.84 352.397 277.397 350.95 276.51C349.55 275.577 348.384 274.177 347.45 272.31C346.564 270.443 346.12 268.18 346.12 265.52C346.12 262.253 346.89 259.033 348.43 255.86C350.017 252.687 352.117 250.097 354.73 248.09C357.344 246.083 360.12 245.08 363.06 245.08C364.647 245.08 366.14 245.547 367.54 246.48C368.94 247.367 370.084 248.743 370.97 250.61C371.857 252.477 372.3 254.74 372.3 257.4C372.3 260.667 371.53 263.887 369.99 267.06C368.45 270.233 366.374 272.823 363.76 274.83C361.194 276.837 358.44 277.84 355.5 277.84ZM355.78 276.16C357.647 276.16 359.21 275.413 360.47 273.92C361.73 272.427 362.897 270.42 363.97 267.9C364.95 265.613 365.744 263.14 366.35 260.48C366.957 257.82 367.26 255.393 367.26 253.2C367.26 251.287 366.887 249.747 366.14 248.58C365.394 247.367 364.274 246.76 362.78 246.76C360.914 246.76 359.327 247.53 358.02 249.07C356.714 250.563 355.524 252.547 354.45 255.02C353.47 257.307 352.677 259.78 352.07 262.44C351.464 265.1 351.16 267.527 351.16 269.72C351.16 271.633 351.557 273.197 352.35 274.41C353.144 275.577 354.287 276.16 355.78 276.16ZM387.554 277.84C384.801 277.84 382.584 276.883 380.904 274.97C379.271 273.01 378.454 270 378.454 265.94C378.454 262.673 379.224 259.43 380.764 256.21C382.351 252.943 384.451 250.283 387.064 248.23C389.678 246.13 392.454 245.08 395.394 245.08C397.448 245.08 399.104 245.687 400.364 246.9C401.624 248.113 402.254 249.537 402.254 251.17C402.254 253.13 401.368 254.74 399.594 256C397.868 257.26 396.001 258.123 393.994 258.59L393.924 258.94C395.698 258.94 397.261 259.593 398.614 260.9C400.014 262.207 400.714 263.91 400.714 266.01C400.714 268.297 400.108 270.35 398.894 272.17C397.681 273.943 396.048 275.343 393.994 276.37C391.988 277.35 389.841 277.84 387.554 277.84ZM389.584 258.73C391.964 258.17 393.948 257.19 395.534 255.79C397.121 254.39 397.914 252.64 397.914 250.54C397.914 249.327 397.634 248.393 397.074 247.74C396.561 247.087 395.861 246.76 394.974 246.76C393.714 246.76 392.548 247.18 391.474 248.02C390.401 248.813 389.328 250.167 388.254 252.08C387.648 253.107 387.018 254.413 386.364 256C385.758 257.54 385.314 258.87 385.034 259.99L389.584 258.73ZM387.974 276.16C389.514 276.16 390.868 275.67 392.034 274.69C393.201 273.663 394.088 272.38 394.694 270.84C395.348 269.253 395.674 267.667 395.674 266.08C395.674 264.4 395.231 263.07 394.344 262.09C393.458 261.11 392.221 260.62 390.634 260.62C388.161 260.62 386.108 261.157 384.474 262.23C383.821 265.123 383.494 267.527 383.494 269.44C383.494 271.773 383.868 273.477 384.614 274.55C385.361 275.623 386.481 276.16 387.974 276.16Z" fill="white"/>
</svg>
